<svg width="98" height="98" viewBox="0 0 98 98" fill="none" xmlns="http://www.w3.org/2000/svg">
<path d="M48.9998 0C37.3647 0.000494683 26.1094 4.24579 17.2478 11.9763C8.38626 19.7068 2.49667 30.418 0.632882 42.1934C-1.23091 53.9688 1.05273 66.04 7.07519 76.247C13.0976 86.454 22.4659 94.1308 33.5037 97.9038C35.9537 98.3435 36.8725 96.8364 36.8725 95.5175C36.8725 94.3243 36.8112 90.3679 36.8112 86.1604C24.5 88.484 21.315 83.0834 20.335 80.2575C19.2476 77.509 17.5238 75.0734 15.3125 73.161C13.5975 72.219 11.1476 69.8955 15.2512 69.8328C16.8182 70.0071 18.321 70.5661 19.6325 71.4625C20.9439 72.3589 22.0253 73.5662 22.785 74.9821C23.4551 76.2165 24.3563 77.3032 25.4368 78.1799C26.5173 79.0565 27.7559 79.706 29.0816 80.091C30.4073 80.4761 31.7941 80.5891 33.1625 80.4236C34.5309 80.2582 35.854 79.8175 37.056 79.1269C37.2682 76.5728 38.3783 74.1848 40.1799 72.4076C29.2774 71.1516 17.885 66.8183 17.885 47.6019C17.8162 42.6089 19.6132 37.778 22.9075 34.1001C21.4095 29.7605 21.5847 24.9982 23.3975 20.7867C23.3975 20.7867 27.501 19.4678 36.8724 25.9362C44.8901 23.6753 53.3545 23.6753 61.3722 25.9362C70.7433 19.4051 74.8471 20.7867 74.8471 20.7867C76.6601 24.9981 76.8354 29.7606 75.3371 34.1001C78.6413 37.7717 80.4399 42.6068 80.3596 47.6019C80.3596 66.8811 68.9058 71.1516 58.0035 72.4076C59.1729 73.6228 60.0735 75.0818 60.6442 76.6855C61.2149 78.2892 61.4423 80 61.311 81.7018C61.311 88.4215 61.2497 93.822 61.2497 95.5177C61.2497 96.8365 62.1684 98.4064 64.6184 97.904C75.6368 94.1002 84.9781 86.4054 90.9749 76.1932C96.9717 65.981 99.2337 53.916 97.357 42.152C95.4803 30.388 89.5871 19.6907 80.7294 11.9696C71.8717 4.24849 60.626 0.00620409 48.9998 0Z" fill="white"/>
</svg>
