<svg width="102" height="102" viewBox="0 0 102 102" fill="none" xmlns="http://www.w3.org/2000/svg">
<path d="M51 0C22.8331 0 0 22.8331 0 51C0 79.1669 22.8331 102 51 102C79.1669 102 102 79.1669 102 51C102 22.8331 79.1669 0 51 0ZM38.5156 72.1384H28.1881V38.9034H38.5156V72.1384ZM33.2881 34.8234C30.0262 34.8234 27.9172 32.5125 27.9172 29.6544C27.9172 26.7378 30.09 24.4959 33.4209 24.4959C36.7519 24.4959 38.7919 26.7378 38.8556 29.6544C38.8556 32.5125 36.7519 34.8234 33.2881 34.8234ZM76.2344 72.1384H65.9069V53.72C65.9069 49.4328 64.4088 46.5216 60.6741 46.5216C57.8213 46.5216 56.1266 48.4925 55.3775 50.3891C55.1013 51.0638 55.0322 52.02 55.0322 52.9709V72.1331H44.6994V49.5019C44.6994 45.3528 44.5666 41.8838 44.4284 38.8981H53.4012L53.8741 43.5147H54.0813C55.4412 41.3472 58.7722 38.1491 64.345 38.1491C71.1397 38.1491 76.2344 42.7019 76.2344 52.4875V72.1384Z" fill="white"/>
</svg>
