<svg width="157" height="136" viewBox="0 0 157 136" fill="none" xmlns="http://www.w3.org/2000/svg">
<g filter="url(#filter0_i_49_125)">
<path d="M120.409 0.0466692C121.848 6.195 121.945 5.14911 120.409 0.0466692C133.776 8.83335 145.566 21.8535 151.287 35.7434C157.009 49.6332 158.007 64.6855 154.154 78.9968C150.302 93.3081 141.773 106.236 129.645 116.145C117.517 126.054 102.336 132.499 86.02 134.666C69.7045 136.832 52.9879 134.623 37.984 128.317C22.9802 122.012 9.12615 110.851 0.49116 98.1984C14.6755 101.638 9.54097 101.157 0.49116 98.1984C0.49116 98.1984 68.0434 100.437 93.0001 78.9968C123.987 52.3766 120.409 0.0466692 120.409 0.0466692Z" fill="#FFD510"/>
</g>
<defs>
<filter id="filter0_i_49_125" x="0.491211" y="0.0466309" width="156.966" height="136.428" filterUnits="userSpaceOnUse" color-interpolation-filters="sRGB">
<feFlood flood-opacity="0" result="BackgroundImageFix"/>
<feBlend mode="normal" in="SourceGraphic" in2="BackgroundImageFix" result="shape"/>
<feColorMatrix in="SourceAlpha" type="matrix" values="0 0 0 0 0 0 0 0 0 0 0 0 0 0 0 0 0 0 127 0" result="hardAlpha"/>
<feOffset dx="3" dy="2"/>
<feGaussianBlur stdDeviation="0.5"/>
<feComposite in2="hardAlpha" operator="arithmetic" k2="-1" k3="1"/>
<feColorMatrix type="matrix" values="0 0 0 0 0 0 0 0 0 0 0 0 0 0 0 0 0 0 0.25 0"/>
<feBlend mode="normal" in2="shape" result="effect1_innerShadow_49_125"/>
</filter>
</defs>
</svg>
