<svg width="280" height="249" viewBox="0 0 280 249" fill="none" xmlns="http://www.w3.org/2000/svg">
<g filter="url(#filter0_d_51_206)">
<ellipse cx="144.568" cy="132.026" rx="115.291" ry="28.7725" transform="rotate(-16.7649 144.568 132.026)" fill="#1AF0B0"/>
<path d="M254.72 98.8429C255.824 102.51 253.914 106.97 249.331 111.938C244.761 116.892 237.595 122.281 228.367 127.777C209.914 138.767 183.265 150.157 152.795 159.336C122.325 168.515 93.8191 173.741 72.366 174.772C61.6376 175.288 52.6874 174.754 46.1418 173.149C39.5772 171.539 35.5207 168.876 34.4161 165.209C33.3115 161.543 35.222 157.082 39.8051 152.114C44.3749 147.161 51.5409 141.772 60.769 136.275C79.2219 125.285 105.871 113.895 136.341 104.716C166.811 95.5368 195.317 90.3115 216.77 89.2802C227.498 88.7645 236.448 89.2984 242.994 90.9034C249.559 92.513 253.615 95.1762 254.72 98.8429Z" stroke="black" stroke-width="0.5"/>
</g>
<mask id="path-3-inside-1_51_206" fill="white">
<path fill-rule="evenodd" clip-rule="evenodd" d="M215.432 109.665C213.93 101.138 210.892 92.7328 206.217 84.8432C185.417 49.735 140.095 38.1358 104.987 58.9357C71.2657 78.9138 59.2327 121.515 76.7653 155.959C93.179 156.023 114.511 155.135 137.805 148.118C164.107 140.195 188.097 125.906 206.391 115.009C209.585 113.107 212.604 111.309 215.432 109.665ZM215.644 133.964C199.495 143.82 176.984 153.647 151.344 161.371C128.644 168.21 107.077 172.319 89.3105 173.661C112.53 197.913 150.181 203.923 180.31 186.074C200.032 174.389 212.335 154.967 215.644 133.964Z"/>
</mask>
<path fill-rule="evenodd" clip-rule="evenodd" d="M215.432 109.665C213.93 101.138 210.892 92.7328 206.217 84.8432C185.417 49.735 140.095 38.1358 104.987 58.9357C71.2657 78.9138 59.2327 121.515 76.7653 155.959C93.179 156.023 114.511 155.135 137.805 148.118C164.107 140.195 188.097 125.906 206.391 115.009C209.585 113.107 212.604 111.309 215.432 109.665ZM215.644 133.964C199.495 143.82 176.984 153.647 151.344 161.371C128.644 168.21 107.077 172.319 89.3105 173.661C112.53 197.913 150.181 203.923 180.31 186.074C200.032 174.389 212.335 154.967 215.644 133.964Z" fill="#53AAC5"/>
<path d="M215.432 109.665L215.935 110.53L216.538 110.179L216.417 109.492L215.432 109.665ZM76.7653 155.959L75.8741 156.413L76.151 156.957L76.7614 156.959L76.7653 155.959ZM137.805 148.118L137.516 147.161L137.805 148.118ZM206.391 115.009L205.88 114.15L206.391 115.009ZM215.644 133.964L216.632 134.12L216.968 131.984L215.123 133.11L215.644 133.964ZM151.344 161.371L151.632 162.329L151.344 161.371ZM89.3105 173.661L89.2352 172.663L87.124 172.823L88.5882 174.352L89.3105 173.661ZM205.357 85.3529C209.969 93.1373 212.965 101.429 214.448 109.839L216.417 109.492C214.894 100.848 211.814 92.3283 207.078 84.3334L205.357 85.3529ZM105.497 59.796C140.13 39.2777 184.839 50.7198 205.357 85.3529L207.078 84.3334C185.996 48.7501 140.06 36.994 104.477 58.0754L105.497 59.796ZM77.6565 155.506C60.3616 121.528 72.2322 79.5036 105.497 59.796L104.477 58.0754C70.2993 78.324 58.1038 121.502 75.8741 156.413L77.6565 155.506ZM76.7614 156.959C93.215 157.023 114.661 156.135 138.093 149.076L137.516 147.161C114.361 154.136 93.1429 155.022 76.7691 154.959L76.7614 156.959ZM138.093 149.076C164.531 141.111 188.622 126.757 206.903 115.868L205.88 114.15C187.572 125.054 163.683 139.278 137.516 147.161L138.093 149.076ZM206.903 115.868C210.097 113.966 213.112 112.17 215.935 110.53L214.93 108.801C212.096 110.447 209.072 112.249 205.88 114.15L206.903 115.868ZM215.123 133.11C199.063 142.912 176.634 152.708 151.055 160.414L151.632 162.329C177.333 154.586 199.927 144.728 216.165 134.818L215.123 133.11ZM151.055 160.414C128.412 167.235 106.917 171.328 89.2352 172.663L89.3858 174.658C107.237 173.31 128.876 169.184 151.632 162.329L151.055 160.414ZM179.8 185.213C150.08 202.821 112.938 196.893 90.0328 172.969L88.5882 174.352C112.122 198.933 150.282 205.026 180.82 186.934L179.8 185.213ZM214.656 133.808C211.392 154.53 199.255 173.687 179.8 185.213L180.82 186.934C200.809 175.091 213.278 155.405 216.632 134.12L214.656 133.808Z" fill="black" mask="url(#path-3-inside-1_51_206)"/>
<path d="M233.756 97.607C244.585 98.6953 238.021 107.164 233.755 111.382" stroke="#231C1D" stroke-width="0.7" stroke-linecap="round"/>
<path d="M130.793 190.601C126.532 191.116 123.873 190.574 118.297 187.358" stroke="#231C1D" stroke-width="0.7" stroke-linecap="round"/>
<path d="M132.353 187.699C128.093 188.214 123.356 186.165 117.78 182.949" stroke="#231C1D" stroke-width="0.7" stroke-linecap="round"/>
<path d="M82.1585 99.2103C82.2137 93.6412 84.8502 88.6929 90.4765 83.1288" stroke="#231C1D" stroke-width="0.7" stroke-linecap="round"/>
<path d="M87.9902 97.7581C88.0454 92.189 88.7945 89.7023 94.4208 84.1382" stroke="#231C1D" stroke-width="0.7" stroke-linecap="round"/>
<path d="M45.1263 159.072C44.821 154.791 48.8419 150.518 53.1781 148.179" stroke="#231C1D" stroke-width="0.7" stroke-linecap="round"/>
<path d="M49.0698 160.081C49.5906 155.312 50.2634 152.682 55.2169 149.748" stroke="#231C1D" stroke-width="0.7" stroke-linecap="round"/>
<path d="M228.464 98.9067C236.65 100.133 231.997 106.598 228.93 109.784" stroke="#231C1D" stroke-width="0.7" stroke-linecap="round"/>
<path d="M182.347 88.9292C183.385 90.6818 182.806 92.9442 181.053 93.9825C179.301 95.0207 177.038 94.4417 176 92.6892C174.962 90.9367 175.541 88.6743 177.293 87.636C179.046 86.5977 181.308 87.1767 182.347 88.9292Z" fill="#1AF0B0" stroke="black" stroke-width="0.3"/>
<path d="M174.337 79.1751C175.662 81.4119 175.26 84.0306 173.532 85.0539C171.805 86.0771 169.315 85.1719 167.99 82.9351C166.665 80.6982 167.067 78.0795 168.794 77.0563C170.521 76.033 173.011 76.9383 174.337 79.1751Z" fill="#1AF0B0" stroke="black" stroke-width="0.3"/>
<circle cx="182.201" cy="78.9771" r="4.64791" transform="rotate(-30.6447 182.201 78.9771)" fill="#1AF0B0" stroke="black" stroke-width="0.3"/>
<defs>
<filter id="filter0_d_51_206" x="29.8599" y="88.8405" width="229.416" height="94.3712" filterUnits="userSpaceOnUse" color-interpolation-filters="sRGB">
<feFlood flood-opacity="0" result="BackgroundImageFix"/>
<feColorMatrix in="SourceAlpha" type="matrix" values="0 0 0 0 0 0 0 0 0 0 0 0 0 0 0 0 0 0 127 0" result="hardAlpha"/>
<feOffset dy="4"/>
<feGaussianBlur stdDeviation="2"/>
<feComposite in2="hardAlpha" operator="out"/>
<feColorMatrix type="matrix" values="0 0 0 0 0 0 0 0 0 0 0 0 0 0 0 0 0 0 0.25 0"/>
<feBlend mode="normal" in2="BackgroundImageFix" result="effect1_dropShadow_51_206"/>
<feBlend mode="normal" in="SourceGraphic" in2="effect1_dropShadow_51_206" result="shape"/>
</filter>
</defs>
</svg>
