<svg width="131" height="133" viewBox="0 0 131 133" fill="none" xmlns="http://www.w3.org/2000/svg">
<g filter="url(#filter0_i_61_420)">
<path d="M130.492 66.9641C130.492 102.863 101.393 131.964 65.4962 131.964C29.5998 131.964 0.5 102.863 0.5 66.9641C0.5 31.0656 29.5998 1.96411 65.4962 1.96411C101.393 1.96411 130.492 31.0656 130.492 66.9641Z" fill="#1CA6D5" stroke="black"/>
<path d="M50.628 30.1665C50.628 32.5607 49.3924 35.472 47.492 37.7881C45.5905 40.1054 43.0531 41.7918 40.4752 41.7918C39.8338 41.7918 39.4102 41.6576 39.1292 41.4395C38.8503 41.2229 38.6911 40.9073 38.6119 40.4988C38.5322 40.0877 38.5361 39.595 38.5745 39.0414C38.5958 38.7351 38.6266 38.4212 38.6585 38.0961C38.6849 37.8266 38.7121 37.5494 38.7353 37.2621C38.8357 36.0179 38.8521 34.6729 38.3163 33.4966C37.7768 32.3123 36.6898 31.3235 34.6418 30.7617C31.7936 29.3289 31.0308 26.1086 31.6494 23.2062C31.9584 21.7561 32.6107 20.4013 33.5051 19.4118C34.3987 18.423 35.5272 17.8053 36.7957 17.8053C38.0837 17.8053 39.5938 18.2716 41.1415 19.058C42.6871 19.8433 44.2593 20.9422 45.6686 22.194C47.0781 23.4459 48.3208 24.8471 49.2099 26.2349C50.1009 27.6254 50.628 28.9882 50.628 30.1665Z" fill="#018E4A" stroke="black" stroke-width="0.3"/>
<path d="M105.821 64.2211C105.821 67.2928 104.685 71.1546 102.739 75.2274C100.794 79.2974 98.0461 83.5657 94.8369 87.4478C91.6276 91.33 87.9602 94.8218 84.1781 97.3419C80.3944 99.863 76.5073 101.404 72.8551 101.404C71.0322 101.404 69.8588 100.944 69.1303 100.159C68.3991 99.3709 68.089 98.2272 68.0578 96.8005C68.0266 95.3749 68.2742 93.6905 68.6346 91.845C68.8146 90.9232 69.0222 89.9637 69.2363 88.9784L69.2661 88.8416C69.4707 87.9 69.6802 86.9357 69.8758 85.9613C70.695 81.8805 71.2771 77.5906 70.2201 73.9639C69.6904 72.1465 68.7491 70.4947 67.2218 69.1201C65.6979 67.7485 63.5976 66.6593 60.7574 65.9522C52.623 62.2414 50.4857 53.9025 52.2282 46.4585C53.9739 39.0014 59.592 32.5243 66.8803 32.5243C70.5432 32.5243 74.8105 33.7298 79.157 35.7405C83.5018 37.7505 87.9161 40.5605 91.8708 43.7585C95.8257 46.9568 99.3168 50.5398 101.818 54.0936C104.321 57.6507 105.821 61.1623 105.821 64.2211Z" fill="#018E4A" stroke="black" stroke-width="0.3"/>
<mask id="path-4-inside-1_61_420" fill="white">
<path fill-rule="evenodd" clip-rule="evenodd" d="M127.527 50.0891C120.846 54.8433 111.12 56.0202 105.235 50.773C95.1011 44.8114 91.5065 22.984 94.8986 9.98172C110.852 18.5285 122.81 32.9466 127.527 50.0891Z"/>
</mask>
<path fill-rule="evenodd" clip-rule="evenodd" d="M127.527 50.0891C120.846 54.8433 111.12 56.0202 105.235 50.773C95.1011 44.8114 91.5065 22.984 94.8986 9.98172C110.852 18.5285 122.81 32.9466 127.527 50.0891Z" fill="#018E4A"/>
<path d="M127.527 50.0891L127.701 50.3335L127.872 50.2118L127.816 50.0095L127.527 50.0891ZM105.235 50.773L105.435 50.5491L105.413 50.5294L105.387 50.5144L105.235 50.773ZM94.8986 9.98172L95.0403 9.71728L94.7045 9.53739L94.6083 9.90599L94.8986 9.98172ZM127.353 49.8447C120.736 54.5535 111.175 55.6674 105.435 50.5491L105.036 50.9969C111.065 56.3729 120.956 55.1331 127.701 50.3335L127.353 49.8447ZM105.387 50.5144C100.432 47.5992 97.0241 40.7585 95.2874 32.9525C93.5543 25.1621 93.5071 16.5039 95.1889 10.0575L94.6083 9.90599C92.898 16.4619 92.9521 25.2185 94.7018 33.0828C96.4479 40.9314 99.9046 47.9853 105.083 51.0316L105.387 50.5144ZM94.757 10.2462C110.643 18.7565 122.544 33.1103 127.238 50.1687L127.816 50.0095C123.076 32.7829 111.062 18.3004 95.0403 9.71728L94.757 10.2462Z" fill="black" mask="url(#path-4-inside-1_61_420)"/>
<mask id="path-6-inside-2_61_420" fill="white">
<path fill-rule="evenodd" clip-rule="evenodd" d="M88.8099 6.38336C84.1446 13.3422 77.1968 18.9944 69.5063 19.8627C63.0063 20.5966 62.9837 16.1471 62.9559 10.7024C62.9431 8.18 62.9291 5.44398 62.2695 2.91082C62.3699 2.89895 62.4705 2.88734 62.5711 2.876C71.7993 1.83596 80.7483 3.16677 88.8099 6.38336Z"/>
</mask>
<path fill-rule="evenodd" clip-rule="evenodd" d="M88.8099 6.38336C84.1446 13.3422 77.1968 18.9944 69.5063 19.8627C63.0063 20.5966 62.9837 16.1471 62.9559 10.7024C62.9431 8.18 62.9291 5.44398 62.2695 2.91082C62.3699 2.89895 62.4705 2.88734 62.5711 2.876C71.7993 1.83596 80.7483 3.16677 88.8099 6.38336Z" fill="#018E4A"/>
<path d="M88.8099 6.38336L89.0591 6.55041L89.2657 6.24222L88.9211 6.10472L88.8099 6.38336ZM69.5063 19.8627L69.4727 19.5646L69.4727 19.5646L69.5063 19.8627ZM62.9559 10.7024L63.2559 10.7009L62.9559 10.7024ZM62.2695 2.91082L62.2343 2.61289L61.8925 2.65331L61.9792 2.98642L62.2695 2.91082ZM62.5711 2.876L62.6047 3.17412L62.5711 2.876ZM88.5608 6.2163C83.9222 13.1352 77.0423 18.7099 69.4727 19.5646L69.54 20.1608C77.3513 19.2788 84.367 13.5493 89.0591 6.55041L88.5608 6.2163ZM69.4727 19.5646C67.8776 19.7447 66.7156 19.6022 65.8643 19.2316C65.0218 18.8648 64.458 18.2637 64.0742 17.469C63.6862 16.6657 63.4821 15.6634 63.3758 14.5064C63.2696 13.3505 63.2629 12.0653 63.2559 10.7009L62.6559 10.7039C62.6629 12.0618 62.6693 13.3746 62.7783 14.5613C62.8872 15.747 63.1002 16.8321 63.5339 17.73C63.9718 18.6366 64.6341 19.3505 65.6248 19.7817C66.6068 20.2092 67.8851 20.3476 69.54 20.1608L69.4727 19.5646ZM63.2559 10.7009C63.2431 8.18552 63.2306 5.41106 62.5599 2.83522L61.9792 2.98642C62.6277 5.47691 62.643 8.17447 62.6559 10.7039L63.2559 10.7009ZM62.3048 3.20874C62.4046 3.19693 62.5046 3.18539 62.6047 3.17412L62.5375 2.57789C62.4363 2.58929 62.3353 2.60096 62.2343 2.61289L62.3048 3.20874ZM62.6047 3.17412C71.7826 2.13974 80.682 3.46328 88.6988 6.662L88.9211 6.10472C80.8147 2.87026 71.816 1.53217 62.5375 2.57789L62.6047 3.17412Z" fill="black" mask="url(#path-6-inside-2_61_420)"/>
<path d="M30.2197 32.5168L30.1723 32.3745L30.2197 32.5168C30.7381 32.344 31.2064 32.3748 31.6204 32.5492C32.0371 32.7248 32.4079 33.05 32.7184 33.4797C33.3407 34.3408 33.7018 35.5966 33.7018 36.7902C33.7018 36.9883 33.7065 37.1991 33.7114 37.4199C33.7218 37.8929 33.7333 38.4116 33.7021 38.9488C33.6566 39.7321 33.5208 40.5293 33.1663 41.2243C32.8139 41.9153 32.2425 42.5117 31.3112 42.8935C30.3777 43.2762 29.074 43.4464 27.2545 43.2656C25.847 42.9098 24.9605 41.9079 24.4224 40.6803C23.8816 39.4468 23.6991 37.9974 23.6991 36.7902C23.6991 36.23 23.9515 35.7304 24.3821 35.2783C24.8141 34.8248 25.4184 34.4271 26.1012 34.0773C27.2616 33.4826 28.6194 33.0399 29.6829 32.693C29.8721 32.6313 30.0519 32.5727 30.2197 32.5168Z" fill="#018E4A" stroke="black" stroke-width="0.3"/>
<path d="M106.754 79.7404L106.707 79.5981L106.754 79.7404C107.273 79.5676 107.741 79.5984 108.155 79.7728C108.572 79.9484 108.943 80.2737 109.253 80.7033C109.875 81.5645 110.237 82.8202 110.237 84.0138C110.237 86.354 107.381 91.0887 100.11 90.3665C99.7609 90.2778 99.5939 90.1597 99.5253 90.0464C99.4614 89.941 99.4598 89.799 99.5535 89.5937C99.6474 89.3879 99.8249 89.1479 100.066 88.8773C100.307 88.6084 100.602 88.3181 100.923 88.0113C101.04 87.9006 101.159 87.7876 101.281 87.673C101.828 87.1563 102.413 86.6041 102.888 86.0529C103.464 85.3857 103.913 84.6834 103.913 84.0138C103.913 82.8067 104.096 81.9209 104.533 81.2492C104.968 80.5804 105.669 80.1021 106.754 79.7404Z" fill="#018E4A" stroke="black" stroke-width="0.3"/>
</g>
<defs>
<filter id="filter0_i_61_420" x="0" y="1.46411" width="134.992" height="135" filterUnits="userSpaceOnUse" color-interpolation-filters="sRGB">
<feFlood flood-opacity="0" result="BackgroundImageFix"/>
<feBlend mode="normal" in="SourceGraphic" in2="BackgroundImageFix" result="shape"/>
<feColorMatrix in="SourceAlpha" type="matrix" values="0 0 0 0 0 0 0 0 0 0 0 0 0 0 0 0 0 0 127 0" result="hardAlpha"/>
<feOffset dx="4" dy="4"/>
<feGaussianBlur stdDeviation="2"/>
<feComposite in2="hardAlpha" operator="arithmetic" k2="-1" k3="1"/>
<feColorMatrix type="matrix" values="0 0 0 0 0 0 0 0 0 0 0 0 0 0 0 0 0 0 0.25 0"/>
<feBlend mode="normal" in2="shape" result="effect1_innerShadow_61_420"/>
</filter>
</defs>
</svg>
