<svg width="342" height="183" viewBox="0 0 342 183" fill="none" xmlns="http://www.w3.org/2000/svg">
<path d="M84.9231 99.1217L64.1229 127.34L91.081 149.377L59.2899 134.788L45.1886 170.763L48.691 132.892L10.6677 133.725L47.5438 122.186L35.225 89.4486L55.3133 117.888L84.9231 99.1217Z" fill="#D9D9D9"/>
<rect x="104.224" y="94.5539" width="94.752" height="4.30691" rx="2.15346" transform="rotate(-19 104.224 94.5539)" fill="#D9D9D9"/>
<rect x="207.167" y="31.4365" width="94.752" height="4.30691" rx="2.15346" transform="rotate(-19 207.167 31.4365)" fill="#D9D9D9"/>
<rect x="250.236" y="44.3572" width="94.752" height="4.30691" rx="2.15346" transform="rotate(-19 250.236 44.3572)" fill="#D9D9D9"/>
<rect x="86.5737" y="121.882" width="94.752" height="4.30691" rx="2.15346" transform="rotate(-19 86.5737 121.882)" fill="#D9D9D9"/>
<rect x="181.326" y="52.9711" width="55.5401" height="4.30691" rx="2.15346" transform="rotate(-19 181.326 52.9711)" fill="#D9D9D9"/>
<rect x="194.247" y="79.0273" width="55.7246" height="4.30691" rx="2.15346" transform="rotate(-19 194.247 79.0273)" fill="#D9D9D9"/>
<rect x="65.0391" y="87.4263" width="94.752" height="4.30691" rx="2.15346" transform="rotate(-19 65.0391 87.4263)" fill="#D9D9D9"/>
</svg>
