<svg width="195" height="123" viewBox="0 0 195 123" fill="none" xmlns="http://www.w3.org/2000/svg">
<path fill-rule="evenodd" clip-rule="evenodd" d="M28.1311 89.0373H21.5709C9.65761 89.0373 0 79.3797 0 67.4664C0 55.5532 9.65762 45.8955 21.5709 45.8955H27.6506C27.8943 35.7152 36.2233 27.5373 46.4623 27.5373H51.8316C55.2046 27.5373 58.3702 28.4248 61.1079 29.9789C62.8827 13.13 77.1352 0 94.4544 0C109.895 0 122.899 10.4365 126.795 24.6403C131.345 19.9187 137.734 16.9814 144.809 16.9814H147.513C161.328 16.9814 172.526 28.1801 172.526 41.9944C172.526 43.3215 172.423 44.6244 172.224 45.8955H172.457C184.371 45.8955 194.028 55.5532 194.028 67.4664C194.028 79.3797 184.371 89.0373 172.457 89.0373H162.799C162.799 99.4298 154.375 107.855 143.982 107.855H138.613C133.459 107.855 128.79 105.783 125.391 102.427C120.323 114.511 108.38 123 94.4544 123C80.4668 123 68.4795 114.436 63.4503 102.265C60.488 103.5 57.2372 104.183 53.827 104.183H51.1225C40.8124 104.183 31.9592 97.9449 28.1311 89.0373Z" fill="#F0EDED"/>
</svg>
