<svg width="63" height="83" viewBox="0 0 63 83" fill="none" xmlns="http://www.w3.org/2000/svg">
<g filter="url(#filter0_i_61_409)">
<path d="M0.244246 44.6635L6.68977 0.0610416L11.0023 28.7093L38.7258 15.7557L34.9509 50.7657L62.9645 38.0077L57.0991 83.0014L57.96 48.5582L26.9312 62.6588L31.8798 25.9084L0.244246 44.6635Z" fill="#831982"/>
</g>
<path d="M11.1082 28.9358L38.4297 16.17L34.7023 50.7389L34.6553 51.1751L35.0545 50.9933L62.6584 38.4218L57.4683 78.2351L58.2099 48.5645L58.2199 48.1655L57.8566 48.3306L27.2393 62.2442L32.1276 25.9417L32.1965 25.43L31.7523 25.6933L0.566447 44.1819L6.69482 1.77405L10.7551 28.7466L10.8049 29.0775L11.1082 28.9358Z" stroke="black" stroke-width="0.5"/>
<defs>
<filter id="filter0_i_61_409" x="0.244141" y="0.0610352" width="62.7202" height="86.9403" filterUnits="userSpaceOnUse" color-interpolation-filters="sRGB">
<feFlood flood-opacity="0" result="BackgroundImageFix"/>
<feBlend mode="normal" in="SourceGraphic" in2="BackgroundImageFix" result="shape"/>
<feColorMatrix in="SourceAlpha" type="matrix" values="0 0 0 0 0 0 0 0 0 0 0 0 0 0 0 0 0 0 127 0" result="hardAlpha"/>
<feOffset dy="4"/>
<feGaussianBlur stdDeviation="2"/>
<feComposite in2="hardAlpha" operator="arithmetic" k2="-1" k3="1"/>
<feColorMatrix type="matrix" values="0 0 0 0 0 0 0 0 0 0 0 0 0 0 0 0 0 0 0.25 0"/>
<feBlend mode="normal" in2="shape" result="effect1_innerShadow_61_409"/>
</filter>
</defs>
</svg>
