<svg width="244" height="107" viewBox="0 0 244 107" fill="none" xmlns="http://www.w3.org/2000/svg">
<g filter="url(#filter0_i_64_1137)">
<path d="M73.4089 29.5033V77.1698C73.4897 77.2051 73.5867 77.2472 73.6995 77.296C74.0869 77.4635 74.6602 77.7087 75.4023 78.0191C76.8864 78.64 79.0453 79.5213 81.742 80.5622C87.1358 82.6443 94.6786 85.3638 103.274 87.9139C120.486 93.0206 141.837 97.4218 158.605 94.7294C165.133 93.6811 173.248 91.1914 179.749 88.9551C182.995 87.8384 185.831 86.7873 187.856 86.0156C188.868 85.6297 189.678 85.3137 190.233 85.0944C190.379 85.0369 190.507 84.986 190.617 84.9422C190.57 84.8296 190.514 84.6979 190.452 84.5479C190.218 83.988 189.885 83.1743 189.484 82.1571C188.684 80.123 187.616 77.2733 186.546 74.0104C184.409 67.4991 182.243 59.2881 182.201 52.6247C182.158 45.797 184.324 37.3699 186.482 30.6845C187.563 27.3344 188.647 24.4077 189.46 22.3183C189.867 21.2735 190.206 20.4376 190.444 19.8624C190.506 19.7122 190.562 19.5797 190.609 19.466C190.505 19.43 190.385 19.3888 190.251 19.3428C189.693 19.1516 188.88 18.8763 187.864 18.5406C185.832 17.8693 182.987 16.9566 179.734 15.9914C173.222 14.0589 165.105 11.9243 158.62 11.0877C141.735 8.90954 120.379 13.5268 103.194 18.7183C94.6113 21.3109 87.0885 24.0406 81.7115 26.1222C79.0232 27.1628 76.8718 28.0413 75.3931 28.6593C74.6537 28.9683 74.0826 29.2121 73.6967 29.3786C73.5852 29.4267 73.4891 29.4684 73.4089 29.5033Z" fill="#E1EFFA" stroke="black"/>
<path d="M116.111 92.0305C116.373 91.8058 116.603 91.6073 116.794 91.4401L78.8757 80.0088L48.3915 84.5249L46.9211 88.2009C46.987 88.2528 47.0636 88.3129 47.1504 88.3809C47.4884 88.6454 47.9814 89.0277 48.6008 89.4982C49.8396 90.4393 51.5829 91.7327 53.5998 93.1409C57.6419 95.9633 62.7524 99.2255 67.0982 101.052C67.7486 101.326 68.3715 101.591 68.9728 101.847C74.4171 104.164 78.0924 105.728 84.357 105.874C91.9589 106.051 96.3565 104.385 103.286 101.063C106.335 99.6001 109.873 97.0558 112.667 94.8583C114.059 93.7628 115.259 92.7597 116.111 92.0305Z" fill="#D71834" stroke="black"/>
<path d="M116.397 14.3563C116.66 14.581 116.889 14.7796 117.08 14.9468L79.1618 26.3781L48.6776 21.8619L47.2072 18.186C47.2731 18.1341 47.3497 18.0739 47.4366 18.0059C47.7745 17.7415 48.2675 17.3592 48.8869 16.8887C50.1257 15.9475 51.869 14.6542 53.8859 13.2459C57.928 10.4235 63.0385 7.16129 67.3843 5.33442C68.0347 5.06104 68.6576 4.79594 69.2589 4.54002C74.7032 2.22298 78.3785 0.658798 84.6432 0.512776C92.245 0.335585 96.6426 2.00135 103.572 5.32433C106.621 6.7867 110.159 9.33106 112.953 11.5285C114.345 12.624 115.545 13.6272 116.397 14.3563Z" fill="#D71834" stroke="black"/>
<mask id="path-4-inside-1_64_1137" fill="white">
<path fill-rule="evenodd" clip-rule="evenodd" d="M73.4807 29.1763V77.2103L73.1948 76.8854V77.7823C73.1948 77.7823 73.1948 77.7823 73.1948 77.7823V78.0681L72.7742 77.9063C71.0472 78.4108 64.3736 80.3103 59.7567 80.9274C52.4523 81.9036 48.1649 82.0797 40.8862 80.9274C33.9453 79.8285 23.7312 75.4949 23.7312 75.4949L37.9163 67.6143C32.5484 67.2024 25.8821 66.4153 20.872 64.9159C20.6066 64.8365 20.3474 64.7591 20.0939 64.6835C15.8507 63.4173 13.1867 62.6224 9.14946 60.3413C5.26094 58.1441 0.00012645 53.4793 0.00012645 53.4793C0.00012645 53.4793 5.31997 49.0704 9.14946 46.9032C12.9584 44.7476 15.5287 43.8696 19.304 42.5801C19.8037 42.4095 20.3245 42.2316 20.872 42.0426C25.3963 40.4809 31.2685 39.2133 36.3165 38.2966L24.0171 31.4637C24.0171 31.4637 34.2313 27.1301 41.1721 26.0312C48.4509 24.8789 52.7382 25.055 60.0426 26.0312C65.3848 26.7452 73.4807 29.1763 73.4807 29.1763Z"/>
</mask>
<path fill-rule="evenodd" clip-rule="evenodd" d="M73.4807 29.1763V77.2103L73.1948 76.8854V77.7823C73.1948 77.7823 73.1948 77.7823 73.1948 77.7823V78.0681L72.7742 77.9063C71.0472 78.4108 64.3736 80.3103 59.7567 80.9274C52.4523 81.9036 48.1649 82.0797 40.8862 80.9274C33.9453 79.8285 23.7312 75.4949 23.7312 75.4949L37.9163 67.6143C32.5484 67.2024 25.8821 66.4153 20.872 64.9159C20.6066 64.8365 20.3474 64.7591 20.0939 64.6835C15.8507 63.4173 13.1867 62.6224 9.14946 60.3413C5.26094 58.1441 0.00012645 53.4793 0.00012645 53.4793C0.00012645 53.4793 5.31997 49.0704 9.14946 46.9032C12.9584 44.7476 15.5287 43.8696 19.304 42.5801C19.8037 42.4095 20.3245 42.2316 20.872 42.0426C25.3963 40.4809 31.2685 39.2133 36.3165 38.2966L24.0171 31.4637C24.0171 31.4637 34.2313 27.1301 41.1721 26.0312C48.4509 24.8789 52.7382 25.055 60.0426 26.0312C65.3848 26.7452 73.4807 29.1763 73.4807 29.1763Z" fill="#FFB643"/>
<path d="M73.4807 77.2103H74.4807V79.8604L72.73 77.8709L73.4807 77.2103ZM73.4807 29.1763L73.7683 28.2186L74.4807 28.4325V29.1763H73.4807ZM73.1948 76.8854H72.1948V74.2353L73.9455 76.2248L73.1948 76.8854ZM73.1948 77.7823H74.1948V78.5366L73.4695 78.7438L73.1948 77.7823ZM73.1948 77.7823H72.1948V77.028L72.9201 76.8207L73.1948 77.7823ZM73.1948 78.0681H74.1948V79.5241L72.8358 79.0014L73.1948 78.0681ZM72.7742 77.9063L72.4939 76.9464L72.818 76.8518L73.1332 76.973L72.7742 77.9063ZM59.7567 80.9274L59.8892 81.9185L59.7567 80.9274ZM40.8862 80.9274L40.7298 81.9151L40.8862 80.9274ZM23.7312 75.4949L23.3406 76.4155L21.4551 75.6155L23.2456 74.6208L23.7312 75.4949ZM37.9163 67.6143L37.9928 66.6172L41.3118 66.8719L38.402 68.4885L37.9163 67.6143ZM20.872 64.9159L20.5853 65.8739L20.872 64.9159ZM20.0939 64.6835L20.3798 63.7252L20.0939 64.6835ZM9.14946 60.3413L9.64138 59.4706L9.14946 60.3413ZM0.00012645 53.4793L-0.663333 54.2275L-1.53606 53.4536L-0.637973 52.7093L0.00012645 53.4793ZM9.14946 46.9032L8.65693 46.0329L9.14946 46.9032ZM19.304 42.5801L19.6273 43.5265L19.304 42.5801ZM20.872 42.0426L21.1983 42.9879H21.1983L20.872 42.0426ZM36.3165 38.2966L36.8021 37.4225L39.2471 38.7808L36.4952 39.2805L36.3165 38.2966ZM24.0171 31.4637L23.5315 32.3378L21.741 31.3431L23.6266 30.5431L24.0171 31.4637ZM41.1721 26.0312L41.0158 25.0435L41.1721 26.0312ZM60.0426 26.0312L60.1751 25.0401H60.1751L60.0426 26.0312ZM72.4807 77.2103V29.1763H74.4807V77.2103H72.4807ZM73.9455 76.2248L74.2314 76.5497L72.73 77.8709L72.4441 77.546L73.9455 76.2248ZM72.1948 77.7823V76.8854H74.1948V77.7823H72.1948ZM72.9201 76.8207C72.9201 76.8207 72.9201 76.8207 72.9201 76.8207C72.9201 76.8207 72.9201 76.8207 72.9201 76.8207C72.9201 76.8207 72.9201 76.8207 72.9201 76.8207H72.9201C72.9201 76.8207 72.9201 76.8207 72.9201 76.8207C72.9201 76.8207 72.9201 76.8207 72.9201 76.8207C72.9201 76.8207 72.9201 76.8207 72.9201 76.8207C72.9201 76.8207 72.9201 76.8207 72.9201 76.8207C72.9201 76.8207 72.9201 76.8207 72.9201 76.8207C72.9201 76.8207 72.9201 76.8207 72.9201 76.8207C72.9201 76.8207 72.9201 76.8207 72.9201 76.8207C72.9201 76.8207 72.9201 76.8207 72.9201 76.8207C72.9201 76.8207 72.9201 76.8207 72.9201 76.8207C72.9201 76.8207 72.9201 76.8207 72.9201 76.8207C72.9201 76.8207 72.9201 76.8207 72.9201 76.8207C72.9201 76.8207 72.9201 76.8207 73.1948 77.7823C73.4695 78.7438 73.4695 78.7438 73.4695 78.7438H73.4695H73.4695C73.4695 78.7438 73.4695 78.7438 73.4695 78.7438C73.4695 78.7438 73.4695 78.7438 73.4695 78.7438C73.4695 78.7438 73.4695 78.7438 73.4695 78.7438C73.4695 78.7438 73.4695 78.7438 73.4695 78.7438C73.4695 78.7438 73.4695 78.7438 73.4695 78.7438C73.4695 78.7438 73.4695 78.7438 73.4695 78.7438C73.4695 78.7438 73.4695 78.7438 73.4695 78.7438C73.4695 78.7438 73.4695 78.7438 73.4695 78.7438C73.4695 78.7438 73.4695 78.7438 73.4695 78.7438C73.4695 78.7438 73.4695 78.7438 73.4695 78.7438C73.4695 78.7438 73.4695 78.7438 73.4695 78.7438C73.4695 78.7438 73.4695 78.7438 73.4695 78.7438C73.4695 78.7438 73.4695 78.7438 73.4695 78.7438C73.4695 78.7438 73.4695 78.7438 73.4695 78.7438C73.4695 78.7438 73.4695 78.7438 73.4695 78.7438C73.4695 78.7438 73.4695 78.7438 73.4695 78.7438C73.4695 78.7438 73.4695 78.7438 73.4695 78.7438C73.4695 78.7438 73.4695 78.7438 73.4695 78.7438C73.4695 78.7438 73.4695 78.7438 73.4695 78.7438C73.4695 78.7438 73.4695 78.7438 73.4695 78.7438L72.9201 76.8207ZM72.1948 78.0681V77.7823H74.1948V78.0681H72.1948ZM73.1332 76.973L73.5538 77.1347L72.8358 79.0014L72.4152 78.8397L73.1332 76.973ZM59.6242 79.9362C64.1545 79.3307 70.7574 77.4536 72.4939 76.9464L73.0546 78.8662C71.337 79.3679 64.5927 81.2899 59.8892 81.9185L59.6242 79.9362ZM41.0426 79.9397C48.2013 81.073 52.3877 80.9033 59.6242 79.9362L59.8892 81.9185C52.5168 82.9039 48.1286 83.0864 40.7298 81.9151L41.0426 79.9397ZM23.7312 75.4949C24.1218 74.5744 24.1218 74.5744 24.1218 74.5744C24.1218 74.5744 24.1219 74.5744 24.122 74.5744C24.1222 74.5745 24.1226 74.5747 24.1231 74.5749C24.1241 74.5754 24.1258 74.5761 24.1281 74.577C24.1327 74.579 24.1397 74.5819 24.149 74.5859C24.1678 74.5938 24.1961 74.6057 24.2336 74.6214C24.3085 74.6527 24.4199 74.6991 24.5646 74.7587C24.8539 74.8779 25.2761 75.0499 25.8048 75.2599C26.8625 75.68 28.3449 76.2517 30.0419 76.8572C33.4527 78.0743 37.6687 79.4055 41.0426 79.9397L40.7298 81.9151C37.1628 81.3503 32.8013 79.9654 29.3698 78.7409C27.6457 78.1257 26.1407 77.5453 25.0665 77.1186C24.5291 76.9052 24.0991 76.73 23.8027 76.6079C23.6546 76.5469 23.5398 76.4991 23.4616 76.4664C23.4226 76.45 23.3927 76.4375 23.3724 76.4289C23.3622 76.4246 23.3545 76.4214 23.3492 76.4191C23.3465 76.418 23.3445 76.4171 23.3431 76.4165C23.3423 76.4162 23.3418 76.416 23.3414 76.4158C23.3412 76.4157 23.341 76.4157 23.3409 76.4156C23.3407 76.4156 23.3406 76.4155 23.7312 75.4949ZM38.402 68.4885L24.2168 76.3691L23.2456 74.6208L37.4307 66.7401L38.402 68.4885ZM21.1587 63.9579C26.0604 65.4248 32.6369 66.2063 37.9928 66.6172L37.8398 68.6114C32.4599 68.1986 25.7038 67.4057 20.5853 65.8739L21.1587 63.9579ZM20.3798 63.7252C20.6333 63.8009 20.8928 63.8783 21.1587 63.9579L20.5853 65.8739C20.3203 65.7946 20.0615 65.7174 19.8079 65.6417L20.3798 63.7252ZM9.64138 59.4706C13.5741 61.6927 16.1457 62.4618 20.3798 63.7252L19.8079 65.6417C15.5556 64.3728 12.7992 63.552 8.65753 61.2119L9.64138 59.4706ZM0.00012645 53.4793C0.663586 52.731 0.663556 52.731 0.663548 52.731C0.663571 52.731 0.663586 52.731 0.663632 52.7311C0.663724 52.7312 0.663899 52.7313 0.664151 52.7315C0.664662 52.732 0.665486 52.7327 0.666623 52.7337C0.668904 52.7357 0.672436 52.7389 0.677205 52.7431C0.686734 52.7515 0.701184 52.7642 0.720357 52.7811C0.758702 52.8148 0.815922 52.8649 0.890393 52.9298C1.03935 53.0594 1.25725 53.2478 1.53117 53.4811C2.07926 53.9477 2.85034 54.5928 3.74125 55.3054C5.53499 56.7403 7.77057 58.4136 9.64138 59.4706L8.65753 61.2119C6.63983 60.0718 4.30074 58.3141 2.49195 56.8672C1.58159 56.139 0.794438 55.4805 0.234601 55.0039C-0.0454363 54.7654 -0.268917 54.5722 -0.422847 54.4382C-0.49982 54.3712 -0.559429 54.319 -0.60004 54.2833C-0.620349 54.2654 -0.635913 54.2517 -0.646533 54.2423C-0.651836 54.2376 -0.65591 54.234 -0.658718 54.2316C-0.660121 54.2303 -0.661212 54.2293 -0.661983 54.2287C-0.662364 54.2283 -0.66267 54.2281 -0.662898 54.2279C-0.663013 54.2278 -0.66312 54.2277 -0.663173 54.2276C-0.663265 54.2275 -0.663333 54.2275 0.00012645 53.4793ZM9.64199 47.7735C7.78869 48.8223 5.54556 50.4322 3.74341 51.8004C2.84741 52.4806 2.06968 53.094 1.51617 53.5371C1.23952 53.7586 1.01917 53.9374 0.868374 54.0604C0.792981 54.1219 0.734997 54.1695 0.696087 54.2015C0.676625 54.2175 0.661938 54.2296 0.652226 54.2376C0.647374 54.2416 0.643757 54.2446 0.641415 54.2466C0.640248 54.2475 0.639393 54.2482 0.638859 54.2487C0.638592 54.2489 0.638409 54.2491 0.638302 54.2491C0.638249 54.2492 0.638234 54.2492 0.638203 54.2492C0.638203 54.2492 0.638226 54.2492 0.00012645 53.4793C-0.637973 52.7093 -0.637912 52.7092 -0.637828 52.7092C-0.637775 52.7091 -0.637676 52.709 -0.637561 52.709C-0.637348 52.7088 -0.637042 52.7085 -0.636669 52.7082C-0.635906 52.7076 -0.634822 52.7067 -0.633426 52.7055C-0.630618 52.7032 -0.626544 52.6998 -0.621219 52.6954C-0.610568 52.6866 -0.594913 52.6737 -0.574474 52.6569C-0.533588 52.6233 -0.473537 52.574 -0.395984 52.5108C-0.240894 52.3842 -0.0157198 52.2016 0.266209 51.9759C0.829846 51.5246 1.62142 50.9003 2.53406 50.2075C4.34921 48.8294 6.68074 47.1513 8.65693 46.0329L9.64199 47.7735ZM19.6273 43.5265C15.8596 44.8134 13.3646 45.6667 9.64198 47.7735L8.65693 46.0329C12.5523 43.8284 15.1979 42.9259 18.9808 41.6338L19.6273 43.5265ZM21.1983 42.9879C20.649 43.1775 20.1268 43.3559 19.6273 43.5265L18.9808 41.6338C19.4807 41.4631 20 41.2857 20.5458 41.0973L21.1983 42.9879ZM36.4952 39.2805C31.459 40.1951 25.648 41.4519 21.1983 42.9879L20.5458 41.0973C25.1446 39.5099 31.078 38.2316 36.1378 37.3127L36.4952 39.2805ZM24.5028 30.5895L36.8021 37.4225L35.8309 39.1708L23.5315 32.3378L24.5028 30.5895ZM41.3285 27.0189C37.9547 27.5531 33.7386 28.8843 30.3279 30.1013C28.6309 30.7069 27.1485 31.2786 26.0907 31.6987C25.562 31.9087 25.1398 32.0807 24.8505 32.1999C24.7058 32.2595 24.5944 32.3059 24.5195 32.3372C24.4821 32.3529 24.4537 32.3648 24.435 32.3727C24.4256 32.3767 24.4186 32.3796 24.414 32.3816C24.4118 32.3825 24.4101 32.3832 24.409 32.3837C24.4085 32.3839 24.4081 32.3841 24.4079 32.3841C24.4078 32.3842 24.4078 32.3842 24.4077 32.3842C24.4077 32.3842 24.4077 32.3842 24.0171 31.4637C23.6266 30.5431 23.6267 30.543 23.6268 30.543C23.6269 30.5429 23.6271 30.5429 23.6273 30.5428C23.6277 30.5426 23.6283 30.5424 23.629 30.5421C23.6304 30.5415 23.6325 30.5406 23.6351 30.5395C23.6404 30.5372 23.6482 30.5339 23.6583 30.5297C23.6786 30.5211 23.7085 30.5085 23.7476 30.4922C23.8257 30.4595 23.9405 30.4117 24.0887 30.3507C24.385 30.2286 24.8151 30.0534 25.3524 29.84C26.4267 29.4133 27.9316 28.8329 29.6557 28.2177C33.0873 26.9932 37.4487 25.6082 41.0158 25.0435L41.3285 27.0189ZM59.9102 27.0224C52.6736 26.0552 48.4872 25.8856 41.3285 27.0189L41.0158 25.0435C48.4145 23.8722 52.8028 24.0547 60.1751 25.0401L59.9102 27.0224ZM73.4807 29.1763C73.1931 30.1341 73.1931 30.1341 73.1931 30.1341C73.1931 30.1341 73.193 30.134 73.1929 30.134C73.1927 30.134 73.1924 30.1339 73.192 30.1337C73.1912 30.1335 73.1898 30.1331 73.188 30.1325C73.1843 30.1314 73.1787 30.1298 73.1713 30.1275C73.1563 30.1231 73.1338 30.1164 73.104 30.1075C73.0445 30.0899 72.9561 30.0638 72.8414 30.0302C72.612 29.963 72.2776 29.866 71.8593 29.7473C71.0224 29.5098 69.8511 29.1858 68.5143 28.8396C65.8297 28.1444 62.5185 27.371 59.9102 27.0224L60.1751 25.0401C62.909 25.4054 66.3168 26.2046 69.0157 26.9035C70.3706 27.2543 71.5572 27.5826 72.4053 27.8233C72.8294 27.9437 73.1692 28.0422 73.4034 28.1108C73.5205 28.145 73.6112 28.1719 73.6729 28.1902C73.7038 28.1993 73.7274 28.2063 73.7434 28.2111C73.7514 28.2135 73.7575 28.2153 73.7617 28.2166C73.7637 28.2172 73.7653 28.2177 73.7665 28.218C73.767 28.2182 73.7674 28.2183 73.7678 28.2184C73.7679 28.2185 73.768 28.2185 73.7681 28.2185C73.7682 28.2186 73.7683 28.2186 73.4807 29.1763Z" fill="black" mask="url(#path-4-inside-1_64_1137)"/>
<path d="M241.804 53.419L241.805 53.4182L242.987 51.7638L241.808 50.1143L241.654 49.9967C241.515 49.8911 241.314 49.7377 241.062 49.5464C240.558 49.1637 239.854 48.6295 239.051 48.0234C237.445 46.8107 235.446 45.3116 233.871 44.162C231.888 42.7147 230.112 41.3838 228.442 40.1332C222.487 35.6724 217.898 32.2347 210.202 28.1894C206.572 26.2814 201.731 24.2162 197.787 22.6245C195.817 21.8295 194.074 21.1543 192.825 20.6779C192.2 20.4397 191.698 20.2513 191.353 20.1224C191.308 20.1057 191.266 20.0899 191.227 20.0752C191.161 20.1987 191.08 20.3511 190.986 20.5308C190.702 21.0739 190.296 21.8657 189.807 22.8575C188.829 24.8417 187.525 27.6249 186.216 30.8206C183.592 37.2295 180.98 45.232 180.913 51.7689C180.845 58.515 183.457 66.8005 186.115 73.442C187.441 76.7536 188.771 79.6396 189.77 81.6975C190.269 82.7263 190.685 83.5476 190.976 84.1111C191.074 84.3009 191.158 84.4615 191.226 84.5908C191.265 84.5761 191.305 84.5603 191.348 84.5436C191.694 84.4101 192.196 84.2148 192.821 83.9679C194.072 83.4743 195.816 82.7748 197.786 81.9518C201.733 80.3039 206.574 78.1675 210.196 76.1992C218.097 71.906 222.726 68.3011 228.863 63.5215C230.409 62.318 232.05 61.04 233.863 59.6578C235.44 58.4554 237.438 56.8851 239.044 55.6143C239.847 54.9791 240.55 54.4192 241.054 54.0181C241.305 53.8176 241.507 53.6567 241.645 53.5461L241.804 53.419Z" fill="#D71834" stroke="black"/>
<path d="M112.933 52.8885C112.753 52.7042 112.492 52.4406 112.163 52.1174C111.496 51.4602 110.553 50.5577 109.45 49.5771C107.237 47.609 104.412 45.3525 101.896 44.1171C99.5138 42.9473 96.1967 42.0975 93.4505 41.5393C92.0823 41.2612 90.8649 41.0572 89.9896 40.9228C89.5521 40.8556 89.2004 40.8059 88.9584 40.773C88.8374 40.7565 88.7439 40.7443 88.6808 40.7361L88.631 40.7298L88.5181 40.7422C88.4134 40.7537 88.2585 40.7709 88.0582 40.7934C87.6575 40.8384 87.0751 40.905 86.3485 40.9908C84.8953 41.1624 82.8657 41.4113 80.5607 41.72C75.9477 42.3378 70.2426 43.1938 65.8459 44.149C61.4934 45.0946 56.0021 46.6632 51.5924 47.9979C49.3889 48.6648 47.4581 49.2725 46.0783 49.7134C45.3884 49.9338 44.8363 50.1126 44.4569 50.2362C44.3348 50.2759 44.2306 50.31 44.1454 50.3379V55.4878C44.2324 55.5198 44.3403 55.5593 44.4679 55.6059C44.8458 55.7438 45.3957 55.9431 46.0832 56.1883C47.4584 56.6789 49.3834 57.3533 51.5827 58.0883C55.9851 59.5597 61.4725 61.2696 65.8474 62.2381C70.5503 63.2791 76.6789 64.0635 81.6419 64.588C84.1213 64.85 86.3058 65.0467 87.8704 65.1779C88.6526 65.2435 89.2798 65.2927 89.7112 65.3255C89.927 65.3419 90.0937 65.3542 90.2065 65.3624L90.31 65.3698L90.3278 65.365C90.3826 65.3499 90.4637 65.3274 90.5686 65.2979C90.7784 65.2389 91.0834 65.1521 91.463 65.0406C92.2224 64.8177 93.2796 64.4969 94.4707 64.105C96.859 63.3193 99.7628 62.2557 101.885 61.1315C104.316 59.8439 107.15 57.7203 109.389 55.9055C110.505 55.0004 111.469 54.1765 112.153 53.5789C112.483 53.2904 112.748 53.0548 112.933 52.8885Z" fill="#D71834" stroke="black" stroke-width="0.8"/>
<circle cx="21" cy="21" r="20.5" transform="matrix(0 -1 -1 0 168.601 73.3868)" fill="#51AEAD" stroke="#2D3A54"/>
<circle cx="16" cy="16" r="15.5" transform="matrix(0 -1 -1 0 163.601 68.3868)" fill="#AEFDF0" stroke="black"/>
</g>
<defs>
<filter id="filter0_i_64_1137" x="0.000244141" y="0" width="244.601" height="107.387" filterUnits="userSpaceOnUse" color-interpolation-filters="sRGB">
<feFlood flood-opacity="0" result="BackgroundImageFix"/>
<feBlend mode="normal" in="SourceGraphic" in2="BackgroundImageFix" result="shape"/>
<feColorMatrix in="SourceAlpha" type="matrix" values="0 0 0 0 0 0 0 0 0 0 0 0 0 0 0 0 0 0 127 0" result="hardAlpha"/>
<feOffset dx="4" dy="4"/>
<feGaussianBlur stdDeviation="0.5"/>
<feComposite in2="hardAlpha" operator="arithmetic" k2="-1" k3="1"/>
<feColorMatrix type="matrix" values="0 0 0 0 0 0 0 0 0 0 0 0 0 0 0 0 0 0 0.25 0"/>
<feBlend mode="normal" in2="shape" result="effect1_innerShadow_64_1137"/>
</filter>
</defs>
</svg>
