<svg width="465" height="596" viewBox="0 0 465 596" fill="none" xmlns="http://www.w3.org/2000/svg">
<path d="M180.338 150.071L195.411 145.172C197.882 144.369 200.608 145.242 202.163 147.335L237.365 194.704L312.984 296.462L459.253 493.289C461.7 496.583 460.208 501.261 456.312 502.506L171.624 593.482C167.737 594.724 163.728 591.823 163.712 587.757L162.745 344.473L162.245 218.71L162.012 160.189C162.002 157.591 163.683 155.299 166.171 154.518L180.338 150.071Z" fill="url(#paint0_linear_43_327)"/>
<mask id="path-2-inside-1_43_327" fill="white">
<path d="M239.562 79.7614C235.568 65.1497 224.554 53.1001 208.945 46.2633C193.336 39.4264 174.41 38.3625 156.33 43.3054C138.251 48.2484 122.498 58.7934 112.539 72.6206C102.579 86.4478 99.2283 102.425 103.223 117.036L171.393 98.3989L239.562 79.7614Z"/>
</mask>
<path d="M239.562 79.7614C235.568 65.1497 224.554 53.1001 208.945 46.2633C193.336 39.4264 174.41 38.3625 156.33 43.3054C138.251 48.2484 122.498 58.7934 112.539 72.6206C102.579 86.4478 99.2283 102.425 103.223 117.036L171.393 98.3989L239.562 79.7614Z" fill="#D4CCD7" stroke="black" stroke-width="2" mask="url(#path-2-inside-1_43_327)"/>
<path d="M234.504 71.7367L170.294 86.7689L170.274 86.7736L170.254 86.7798L103.151 108.389C102.371 105.167 102.413 101.54 102.67 98.6446C102.805 97.1253 102.998 95.8177 103.157 94.8908C103.236 94.4274 103.307 94.0597 103.358 93.8086C103.367 93.7635 103.375 93.7222 103.383 93.6848L103.558 93.6176C103.839 93.5098 104.254 93.3507 104.792 93.1457C105.869 92.7357 107.436 92.1419 109.4 91.407C113.328 89.9374 118.842 87.9038 125.182 85.6483C137.867 81.1363 153.85 75.7404 167.076 72.1932C180.314 68.6425 195.126 65.0321 206.631 62.3091C212.383 60.9476 217.307 59.8082 220.793 59.0091C222.536 58.6096 223.919 58.2951 224.867 58.0806C225.341 57.9733 225.705 57.8911 225.952 57.8356L226.034 57.8171C226.066 57.8546 226.102 57.8967 226.141 57.9431C226.335 58.172 226.615 58.5075 226.957 58.9318C227.64 59.7808 228.572 60.9837 229.561 62.3988C231.45 65.1002 233.519 68.5334 234.504 71.7367Z" fill="#FF933E" stroke="black"/>
<path d="M328.328 82.0873C329.652 86.9309 326.95 92.7816 320.551 99.2881C314.181 105.765 304.278 112.755 291.569 119.832C266.158 133.984 229.631 148.431 188.013 159.81C146.394 171.188 107.598 177.334 78.5213 178.079C63.9791 178.452 51.8973 177.473 43.1181 175.138C34.299 172.792 28.996 169.13 27.6718 164.286C26.3475 159.442 29.0498 153.592 35.4487 147.085C41.8185 140.608 51.7218 133.619 64.4308 126.541C89.8419 112.389 126.369 97.9418 167.987 86.5635C209.605 75.1853 248.402 69.0394 277.478 68.2941C292.021 67.9213 304.102 68.9004 312.882 71.2357C321.701 73.5816 327.004 77.2437 328.328 82.0873Z" fill="#E84084" stroke="black"/>
<path d="M312.947 72.0816C321.229 74.7035 326.329 78.4387 327.855 83.0832C326.113 83.562 323.829 83.8147 320.997 83.9113C317.908 84.0167 314.205 83.9356 309.902 83.7758C307.807 83.698 305.571 83.6015 303.197 83.4992C295.832 83.1814 287.144 82.8067 277.237 82.7548C251.028 82.6175 216.251 84.7385 174.551 96.1393C132.877 107.533 98.5743 121.064 73.5154 133.332C60.9863 139.465 50.763 145.285 43.0824 150.367C36.1109 154.98 31.1968 159.009 28.5662 162.133C28.376 160.086 28.8893 157.83 30.0983 155.385C31.527 152.497 33.9124 149.377 37.1859 146.089C43.7327 139.513 53.7654 132.328 66.565 125.035C92.1582 110.453 128.725 95.4861 170.339 84.109C211.951 72.7323 250.072 67.5667 278.472 67.7994C292.675 67.9158 304.42 69.3825 312.947 72.0816Z" fill="#FEF912" stroke="black"/>
<path d="M327.909 84.8759C340.28 85.8595 253.164 79.7079 170.241 102.379C87.3181 125.05 42.7168 156.305 27.9073 162.315C24.2652 148.448 85.0314 116.347 167.954 93.6757C250.877 71.0047 322.383 64.6634 327.909 84.8759Z" fill="#20CFF3" stroke="black" stroke-width="0.01"/>
<ellipse cx="183.842" cy="148.267" rx="74.7578" ry="11.7674" transform="rotate(-14.7213 183.842 148.267)" fill="#1AF0AF"/>
<path d="M255.904 129.333C256.082 130.008 255.832 130.826 255.082 131.797C254.336 132.762 253.126 133.833 251.484 134.988C248.203 137.297 243.249 139.907 236.983 142.653C224.455 148.144 206.727 154.163 186.769 159.407C166.812 164.65 148.414 168.123 134.805 169.499C127.999 170.188 122.401 170.351 118.409 169.953C116.412 169.754 114.832 169.416 113.707 168.942C112.577 168.466 111.958 167.875 111.78 167.201C111.603 166.527 111.852 165.708 112.603 164.738C113.349 163.772 114.559 162.701 116.201 161.546C119.481 159.237 124.436 156.628 130.702 153.882C143.23 148.391 160.958 142.372 180.916 137.128C200.873 131.884 219.271 128.412 232.88 127.035C239.686 126.347 245.283 126.184 249.276 126.582C251.273 126.781 252.853 127.119 253.978 127.593C255.108 128.069 255.727 128.659 255.904 129.333Z" stroke="black" stroke-opacity="0.7" stroke-width="0.5"/>
<path d="M212.487 142.888C213.07 145.106 201.675 151.454 185.776 155.631C169.877 159.809 156.834 159.882 156.251 157.663C155.668 155.445 167.239 149.767 183.138 145.589C199.037 141.412 211.904 140.669 212.487 142.888Z" fill="#AFA278" stroke="black" stroke-width="0.2"/>
<path d="M212.487 142.888C213.07 145.106 202.486 149.094 186.587 153.271C170.688 157.448 156.834 159.882 156.251 157.663C155.668 155.445 167.908 149.591 183.807 145.413C199.706 141.236 211.904 140.669 212.487 142.888Z" fill="#FEF912" stroke="black" stroke-width="0.2"/>
<path d="M53.2353 149.661C51.6832 154.649 100.934 165.04 113.512 163.883M102.816 125.898C101.264 130.887 128.773 148.422 142.549 149.097" stroke="black" stroke-width="0.4"/>
<path d="M170.365 102.425C175.614 106.056 178.582 138.055 176.834 137.941" stroke="black" stroke-width="0.4"/>
<path d="M298.265 85.2814C293.925 101.451 259.04 132.66 254.279 127.613" stroke="black" stroke-width="0.4"/>
<path d="M233.683 90.0831C238.12 96.0743 228.844 120.698 220.878 128.516" stroke="black" stroke-width="0.4"/>
<path d="M89.4364 170.883C89.4288 171.416 89.1059 171.952 88.5035 172.462C87.9031 172.97 87.0437 173.437 86.0104 173.831C83.9448 174.618 81.215 175.102 78.5592 175.064C75.8948 175.026 73.3311 174.687 71.443 174.066C70.4983 173.755 69.7326 173.377 69.2079 172.938C68.685 172.5 68.413 172.013 68.4206 171.478C68.4284 170.933 68.7095 170.364 69.2334 169.81C69.7564 169.257 70.5108 168.731 71.4365 168.277C73.2878 167.37 75.8018 166.765 78.4525 166.803C81.1122 166.841 83.8871 167.301 85.9881 168.046C87.0393 168.419 87.9132 168.859 88.5192 169.347C89.1271 169.836 89.444 170.354 89.4364 170.883Z" fill="#1AFB9A" stroke="black" stroke-width="0.3"/>
<path d="M152.292 136.357C149.834 136.485 147.456 135.531 145.665 134.03C143.873 132.528 142.684 130.491 142.579 128.465C142.473 126.417 142.998 124.412 144.157 122.89C145.313 121.372 147.108 120.324 149.568 120.197C152.035 120.069 154.662 120.85 156.697 122.177C158.736 123.506 160.154 125.363 160.258 127.374C160.469 131.46 157.2 136.103 152.292 136.357Z" fill="#1AFB9A" stroke="black" stroke-width="0.3"/>
<path d="M199.323 121.13C197.251 119.757 195.998 117.387 195.606 114.837C195.213 112.286 195.685 109.575 197.038 107.535C198.391 105.493 200.774 103.898 203.346 103.162C205.919 102.425 208.655 102.556 210.723 103.926C212.79 105.296 213.821 107.598 213.992 110.085C214.164 112.573 213.473 115.228 212.115 117.277C210.757 119.325 208.592 120.98 206.246 121.775C203.901 122.569 201.391 122.501 199.323 121.13Z" fill="#1AFB9A" stroke="black" stroke-width="0.3"/>
<path d="M109.885 153.302C109.725 153.81 109.256 154.231 108.523 154.547C107.792 154.862 106.822 155.062 105.707 155.143C103.476 155.304 100.697 154.984 98.1642 154.186C95.6386 153.39 93.5274 151.98 92.1388 150.492C91.4444 149.749 90.9343 148.99 90.6418 148.283C90.3487 147.574 90.279 146.931 90.4438 146.408C90.6057 145.895 91.0701 145.432 91.7887 145.054C92.5045 144.677 93.4532 144.395 94.5455 144.232C96.7297 143.905 99.4609 144.058 101.988 144.855C104.509 145.65 106.664 147.224 108.098 148.879C108.815 149.707 109.349 150.55 109.659 151.322C109.97 152.097 110.049 152.781 109.885 153.302Z" fill="#1AFB9A" stroke="black" stroke-width="0.3"/>
<path d="M253.475 113.889C253.069 113.545 252.863 112.95 252.856 112.151C252.849 111.355 253.041 110.383 253.4 109.324C254.117 107.206 255.491 104.769 257.21 102.745C258.924 100.726 261.043 99.3278 262.953 98.6254C263.908 98.2742 264.805 98.0988 265.57 98.1037C266.337 98.1086 266.957 98.294 267.374 98.6486C267.785 98.9974 268.031 99.6048 268.1 100.414C268.17 101.22 268.062 102.204 267.788 103.274C267.241 105.413 266.04 107.871 264.324 109.891C262.614 111.905 260.327 113.28 258.244 113.96C257.203 114.299 256.219 114.463 255.387 114.449C254.553 114.436 253.891 114.243 253.475 113.889Z" fill="#1AFB9A" stroke="black" stroke-width="0.3"/>
<path d="M301.213 102.472L301.213 102.472L301.216 102.475C301.675 102.945 301.856 103.477 301.815 104.072C301.774 104.675 301.503 105.352 301.038 106.098C300.106 107.592 298.428 109.31 296.41 111.187C294.416 113.042 291.645 114.279 289.179 114.847C287.947 115.131 286.798 115.246 285.867 115.19C284.927 115.134 284.243 114.905 283.902 114.537C283.561 114.171 283.458 113.672 283.574 113.047C283.691 112.418 284.028 111.677 284.545 110.86C285.58 109.226 287.309 107.323 289.323 105.45C291.317 103.596 293.933 102.452 296.241 101.977C297.395 101.74 298.466 101.671 299.338 101.761C300.217 101.851 300.868 102.1 301.213 102.472Z" fill="#1AFB9A" stroke="black" stroke-width="0.3"/>
<path d="M160.116 158.606C160.093 158.669 160.068 158.733 160.062 158.799C160.058 158.837 160.073 158.88 160.066 158.915" stroke="#35332E" stroke-width="0.02" stroke-linecap="round"/>
<path d="M161.334 158.524C161.332 158.68 161.345 158.814 161.383 158.962" stroke="#35332E" stroke-width="0.02" stroke-linecap="round"/>
<path d="M162.73 158.386C162.731 158.39 162.73 158.393 162.729 158.397C162.717 158.457 162.721 158.525 162.721 158.586C162.722 158.724 162.744 158.847 162.777 158.981" stroke="#35332E" stroke-width="0.02" stroke-linecap="round"/>
<path d="M160.149 158.582C160.127 158.597 160.119 158.658 160.112 158.679C160.091 158.748 160.092 158.812 160.097 158.883" stroke="#35332E" stroke-width="0.2" stroke-linecap="round"/>
<path d="M161.36 158.491C161.355 158.502 161.353 158.514 161.352 158.526C161.344 158.593 161.342 158.662 161.349 158.73C161.358 158.813 161.378 158.887 161.426 158.957" stroke="#35332E" stroke-width="0.2" stroke-linecap="round"/>
<path d="M162.718 158.337C162.722 158.351 162.721 158.371 162.722 158.383C162.732 158.465 162.743 158.535 162.757 158.619C162.767 158.672 162.777 158.725 162.789 158.778C162.901 159.273 162.757 158.625 162.853 158.983" stroke="#35332E" stroke-width="0.2" stroke-linecap="round"/>
<path d="M164.927 158.065C164.938 158.161 164.911 158.268 164.905 158.364C164.892 158.551 164.912 158.72 164.959 158.901" stroke="#35332E" stroke-width="0.2" stroke-linecap="round"/>
<path d="M166.945 157.691C166.947 157.705 166.945 157.717 166.944 157.731C166.932 157.95 166.929 158.174 166.948 158.392C166.962 158.54 167.029 158.67 167.114 158.788" stroke="#35332E" stroke-width="0.15" stroke-linecap="round"/>
<path d="M168.47 157.373C168.587 157.819 168.749 158.253 168.894 158.689" stroke="#35332E" stroke-width="0.15" stroke-linecap="round"/>
<path d="M170.221 157.084C170.287 157.334 170.298 157.594 170.351 157.846C170.393 158.048 170.437 158.248 170.471 158.452" stroke="#35332E" stroke-width="0.15" stroke-linecap="round"/>
<path d="M171.967 156.719C172.062 157.219 172.059 157.735 172.138 158.235" stroke="#35332E" stroke-width="0.15" stroke-linecap="round"/>
<path d="M173.168 156.494C173.232 156.897 173.335 157.303 173.352 157.713C173.359 157.867 173.355 158.027 173.384 158.179" stroke="#35332E" stroke-width="0.15" stroke-linecap="round"/>
<path d="M174.461 156.2C174.55 156.54 174.722 156.883 174.734 157.239C174.744 157.529 174.668 157.804 174.649 158.092" stroke="#35332E" stroke-width="0.15" stroke-linecap="round"/>
<path d="M177.329 155.655C177.331 155.669 177.325 155.685 177.322 155.698C177.318 155.726 177.319 155.722 177.322 155.763C177.335 155.93 177.358 156.097 177.374 156.264C177.397 156.492 177.396 156.704 177.367 156.93C177.35 157.057 177.311 157.175 177.27 157.294" stroke="#35332E" stroke-width="0.15" stroke-linecap="round"/>
<path d="M178.78 155.274C178.849 155.536 178.908 155.807 178.937 156.076C178.958 156.274 178.951 156.464 178.951 156.661C178.951 156.8 178.938 156.947 178.974 157.082" stroke="#35332E" stroke-width="0.15" stroke-linecap="round"/>
<path d="M179.954 155.047C180.058 155.441 180.313 155.79 180.337 156.207C180.346 156.377 180.352 156.563 180.396 156.727" stroke="#35332E" stroke-width="0.15" stroke-linecap="round"/>
<path d="M181.248 154.689C181.252 154.705 181.256 154.719 181.264 154.734C181.364 154.927 181.448 155.139 181.503 155.35C181.558 155.559 181.539 155.759 181.549 155.971C181.553 156.077 181.567 156.17 181.547 156.276C181.536 156.329 181.54 156.389 181.554 156.441" stroke="#35332E" stroke-width="0.15" stroke-linecap="round"/>
<path d="M182.504 154.359C182.548 154.529 182.656 154.694 182.727 154.852C182.84 155.1 182.982 155.358 182.98 155.638C182.978 155.838 182.934 156.035 182.933 156.233" stroke="#35332E" stroke-width="0.15" stroke-linecap="round"/>
<path d="M183.834 154.037C183.841 154.062 183.854 154.078 183.872 154.097C183.957 154.185 184.036 154.274 184.096 154.381C184.189 154.544 184.263 154.703 184.311 154.885C184.36 155.074 184.385 155.245 184.393 155.44C184.399 155.583 184.382 155.727 184.388 155.869" stroke="#35332E" stroke-width="0.15" stroke-linecap="round"/>
<path d="M185.259 153.626C185.263 153.637 185.27 153.643 185.279 153.65C185.332 153.692 185.365 153.742 185.404 153.798C185.586 154.058 185.772 154.33 185.868 154.636C185.96 154.93 185.968 155.206 185.963 155.509" stroke="#35332E" stroke-width="0.15" stroke-linecap="round"/>
<path d="M187.824 152.997C187.829 153.015 187.833 153.032 187.838 153.049C187.868 153.165 187.959 153.283 188.013 153.388C188.074 153.508 188.128 153.63 188.173 153.756C188.244 153.956 188.295 154.172 188.341 154.379C188.363 154.477 188.42 154.66 188.388 154.761C188.366 154.831 188.337 154.911 188.338 154.985" stroke="#35332E" stroke-width="0.15" stroke-linecap="round"/>
<path d="M189.434 152.565C189.465 152.683 189.531 152.788 189.586 152.895C189.647 153.013 189.676 153.139 189.709 153.266C189.738 153.376 189.767 153.485 189.795 153.595C189.829 153.721 189.799 153.85 189.832 153.975C189.857 154.07 189.819 154.17 189.844 154.263C189.854 154.303 189.873 154.372 189.865 154.412" stroke="#35332E" stroke-width="0.15" stroke-linecap="round"/>
<path d="M191.207 152.199C191.229 152.282 191.305 152.346 191.348 152.419C191.427 152.55 191.499 152.683 191.569 152.819C191.708 153.084 191.766 153.395 191.842 153.683" stroke="#35332E" stroke-width="0.15" stroke-linecap="round"/>
<path d="M192.666 151.78C192.675 151.805 192.706 151.834 192.719 151.852C192.885 152.085 193.061 152.327 193.149 152.602C193.211 152.798 193.258 152.999 193.311 153.198" stroke="#35332E" stroke-width="0.15" stroke-linecap="round"/>
<path d="M193.807 151.426C193.826 151.475 193.928 151.55 193.956 151.584C194.111 151.773 194.278 151.953 194.344 152.193C194.393 152.372 194.442 152.555 194.469 152.739" stroke="#35332E" stroke-width="0.15" stroke-linecap="round"/>
<path d="M195.958 150.915C195.968 150.942 196.008 150.977 196.025 150.997C196.142 151.142 196.272 151.277 196.372 151.435C196.45 151.559 196.537 151.682 196.61 151.809C196.664 151.903 196.716 152.037 196.743 152.142" stroke="#35332E" stroke-width="0.15" stroke-linecap="round"/>
<path d="M197.489 150.422C197.696 150.648 197.927 150.863 198.077 151.134C198.146 151.26 198.202 151.392 198.283 151.51" stroke="#35332E" stroke-width="0.15" stroke-linecap="round"/>
<path d="M198.914 149.839C198.981 149.911 199.078 149.97 199.152 150.033C199.29 150.15 199.384 150.26 199.487 150.404C199.575 150.528 199.601 150.678 199.685 150.806" stroke="#35332E" stroke-width="0.15" stroke-linecap="round"/>
<path d="M200.332 149.403C200.352 149.443 200.433 149.498 200.462 149.523C200.592 149.634 200.714 149.742 200.821 149.875C200.915 149.992 200.982 150.107 201.042 150.241" stroke="#35332E" stroke-width="0.15" stroke-linecap="round"/>
<path d="M201.541 148.895C201.572 148.992 201.676 149.083 201.735 149.163C201.793 149.243 201.858 149.325 201.908 149.41C201.999 149.563 202.01 149.752 202.089 149.912" stroke="#35332E" stroke-width="0.15" stroke-linecap="round"/>
<path d="M203.25 148.427C203.269 148.476 203.367 148.548 203.395 148.575C203.532 148.709 203.696 148.842 203.794 149.01" stroke="#35332E" stroke-width="0.15" stroke-linecap="round"/>
<path d="M204.311 147.94C204.332 147.984 204.426 148.042 204.455 148.07C204.601 148.207 204.735 148.336 204.833 148.51" stroke="#35332E" stroke-width="0.15" stroke-linecap="round"/>
<path d="M205.384 147.468C205.39 147.486 205.4 147.498 205.414 147.511C205.498 147.585 205.597 147.645 205.686 147.713C205.803 147.801 205.884 147.903 205.965 148.022" stroke="#35332E" stroke-width="0.15" stroke-linecap="round"/>
<path d="M206.604 147.002C206.758 147.162 206.932 147.306 207.088 147.464" stroke="#35332E" stroke-width="0.15" stroke-linecap="round"/>
<ellipse cx="2.93456" cy="1.55782" rx="2.93456" ry="1.55782" transform="matrix(0.642416 0.766357 -0.766357 0.642415 38.0044 149.994)" fill="#FFF70D" stroke="black" stroke-width="0.7"/>
<ellipse cx="52.4684" cy="144.172" rx="3.51739" ry="2.07661" transform="rotate(46.412 52.4684 144.172)" fill="#FFF70D" stroke="black" stroke-width="0.7"/>
<ellipse cx="68.3227" cy="135.134" rx="3.87783" ry="2.07661" transform="rotate(59.0321 68.3227 135.134)" fill="#FFF70D" stroke="black" stroke-width="0.7"/>
<ellipse cx="86.75" cy="126.904" rx="3.61197" ry="2.07661" transform="rotate(63.7332 86.75 126.904)" fill="#FFF70D" stroke="black" stroke-width="0.7"/>
<ellipse cx="105.587" cy="119.185" rx="3.60996" ry="2.07661" transform="rotate(62.7017 105.587 119.185)" fill="#FFF70D" stroke="black" stroke-width="0.7"/>
<ellipse cx="3.60996" cy="2.0766" rx="3.60996" ry="2.0766" transform="matrix(0.458622 0.888631 -0.888631 0.458623 140.812 102.297)" fill="#FFF70D" stroke="black" stroke-width="0.7"/>
<ellipse cx="160.419" cy="100.42" rx="3.60996" ry="2.07661" transform="rotate(73.3394 160.419 100.42)" fill="#FFF70D" stroke="black" stroke-width="0.7"/>
<ellipse cx="203.967" cy="89.7415" rx="3.60996" ry="2.07661" transform="rotate(84.9533 203.967 89.7415)" fill="#FFF70D" stroke="black" stroke-width="0.7"/>
<ellipse cx="223.83" cy="86.3067" rx="3.60996" ry="2.07661" transform="rotate(84.9533 223.83 86.3067)" fill="#FFF70D" stroke="black" stroke-width="0.7"/>
<ellipse cx="243.022" cy="83.2728" rx="3.60996" ry="2.07661" transform="rotate(84.9533 243.022 83.2728)" fill="#FFF70D" stroke="black" stroke-width="0.7"/>
<ellipse cx="262.016" cy="80.8145" rx="4.06842" ry="2.11753" transform="rotate(95.1977 262.016 80.8145)" fill="#FFF70D" stroke="black" stroke-width="0.7"/>
<ellipse cx="317.588" cy="80.897" rx="3.28973" ry="1.26753" transform="rotate(95.1977 317.588 80.897)" fill="#FFF70D" stroke="black" stroke-width="0.7"/>
<ellipse cx="279.542" cy="79.5181" rx="4.06843" ry="2.11753" transform="rotate(95.1977 279.542 79.5181)" fill="#FFF70D" stroke="black" stroke-width="0.7"/>
<ellipse cx="300.35" cy="79.1248" rx="4.06842" ry="2.11753" transform="rotate(99.7928 300.35 79.1248)" fill="#FFF70D" stroke="black" stroke-width="0.7"/>
<ellipse cx="180.755" cy="94.5093" rx="3.60996" ry="2.07661" transform="rotate(73.3394 180.755 94.5093)" fill="#FFF70D" stroke="black" stroke-width="0.7"/>
<ellipse cx="123.046" cy="112.131" rx="3.60996" ry="2.07661" transform="rotate(62.7018 123.046 112.131)" fill="#FFF70D" stroke="black" stroke-width="0.7"/>
<path d="M178 43.9999C183.5 43.5 188 44.4999 193.5 45.9999" stroke="#2C3235" stroke-linecap="round"/>
<path d="M196.5 47C198.5 47.5 200.5 48 202 49" stroke="#2C3235" stroke-linecap="round"/>
<defs>
<linearGradient id="paint0_linear_43_327" x1="181.621" y1="149.556" x2="309.413" y2="549.449" gradientUnits="userSpaceOnUse">
<stop stop-color="#FFFB7B"/>
<stop offset="0.00766601" stop-color="#969576"/>
<stop offset="1" stop-color="#04121A"/>
</linearGradient>
</defs>
</svg>
