<svg width="233" height="146" viewBox="0 0 233 146" fill="none" xmlns="http://www.w3.org/2000/svg">
<g filter="url(#filter0_i_61_379)">
<g filter="url(#filter1_d_61_379)">
<ellipse cx="112.888" cy="79.8997" rx="116.494" ry="28.3266" transform="rotate(13.8798 112.888 79.8997)" fill="#E33046"/>
<path d="M225.737 107.785C224.834 111.44 220.903 114.24 214.379 116.113C207.875 117.979 198.889 118.895 188.052 118.855C166.382 118.775 137.368 114.87 106.152 107.157C74.9363 99.4431 47.4436 89.3849 28.2299 79.363C18.6213 74.3511 11.0959 69.3549 6.21053 64.6742C1.30955 59.9786 -0.865204 55.6694 0.0378956 52.0146C0.940995 48.3598 4.87252 45.5594 11.3965 43.6869C17.8997 41.8204 26.886 40.9042 37.7231 40.9444C59.3934 41.025 88.4066 44.9294 119.623 52.6429C150.839 60.3564 178.331 70.4146 197.545 80.4365C207.154 85.4484 214.679 90.4446 219.565 95.1253C224.466 99.8209 226.64 104.13 225.737 107.785Z" stroke="black" stroke-width="0.5"/>
</g>
<mask id="path-3-inside-1_61_379" fill="white">
<path fill-rule="evenodd" clip-rule="evenodd" d="M184.996 96.7566C187.558 89.3092 188.948 81.317 188.948 73C188.948 32.6832 156.265 0 115.948 0C78.2242 0 47.1834 28.615 43.3472 65.3236C57.4317 73.8222 76.5398 84.3681 100.779 90.3577C127.126 96.8681 154.714 96.8034 175.752 96.7541C178.999 96.7465 182.089 96.7392 184.996 96.7566ZM173.799 117.529C155.148 117.742 131.173 114.757 105.613 108.441C81.6415 102.518 60.2681 94.651 44.1708 86.3744C50.453 120.304 80.1999 146 115.948 146C139.502 146 160.451 134.845 173.799 117.529Z"/>
</mask>
<path fill-rule="evenodd" clip-rule="evenodd" d="M184.996 96.7566C187.558 89.3092 188.948 81.317 188.948 73C188.948 32.6832 156.265 0 115.948 0C78.2242 0 47.1834 28.615 43.3472 65.3236C57.4317 73.8222 76.5398 84.3681 100.779 90.3577C127.126 96.8681 154.714 96.8034 175.752 96.7541C178.999 96.7465 182.089 96.7392 184.996 96.7566ZM173.799 117.529C155.148 117.742 131.173 114.757 105.613 108.441C81.6415 102.518 60.2681 94.651 44.1708 86.3744C50.453 120.304 80.1999 146 115.948 146C139.502 146 160.451 134.845 173.799 117.529Z" fill="#FEBF5A"/>
<path d="M184.996 96.7566L184.99 97.7566L185.708 97.7609L185.941 97.0819L184.996 96.7566ZM43.3472 65.3236L42.3526 65.2197L42.2865 65.8516L42.8305 66.1798L43.3472 65.3236ZM100.779 90.3577L101.019 89.3869L100.779 90.3577ZM175.752 96.7541L175.754 97.7541L175.752 96.7541ZM173.799 117.529L174.591 118.139L175.851 116.505L173.788 116.529L173.799 117.529ZM105.613 108.441L105.373 109.412L105.613 108.441ZM44.1708 86.3744L44.6281 85.485L42.8167 84.5537L43.1875 86.5564L44.1708 86.3744ZM187.948 73C187.948 81.2049 186.576 89.0872 184.05 96.4313L185.941 97.0819C188.539 89.5312 189.948 81.4292 189.948 73H187.948ZM115.948 1C155.713 1 187.948 33.2355 187.948 73H189.948C189.948 32.1309 156.817 -1 115.948 -1V1ZM44.3418 65.4275C48.1253 29.2228 78.7416 1 115.948 1V-1C77.7068 -1 46.2414 28.0071 42.3526 65.2197L44.3418 65.4275ZM42.8305 66.1798C56.945 74.6965 76.1545 85.303 100.539 91.3285L101.019 89.3869C76.925 83.4333 57.9184 72.9479 43.8638 64.4674L42.8305 66.1798ZM100.539 91.3285C127.024 97.8728 154.731 97.8034 175.754 97.7541L175.749 95.7541C154.696 95.8035 127.229 95.8634 101.019 89.3869L100.539 91.3285ZM175.754 97.7541C179.002 97.7465 182.088 97.7393 184.99 97.7566L185.002 95.7566C182.09 95.7392 178.995 95.7465 175.749 95.7541L175.754 97.7541ZM173.788 116.529C155.24 116.741 131.351 113.771 105.853 107.47L105.373 109.412C130.995 115.743 155.056 118.743 173.811 118.529L173.788 116.529ZM105.853 107.47C81.9407 101.561 60.6429 93.7193 44.6281 85.485L43.7135 87.2637C59.8932 95.5827 81.3423 103.474 105.373 109.412L105.853 107.47ZM115.948 145C80.6907 145 51.3501 119.656 45.1541 86.1923L43.1875 86.5564C49.5559 120.951 79.7091 147 115.948 147V145ZM173.007 116.918C159.84 133.999 139.179 145 115.948 145V147C139.826 147 161.062 135.69 174.591 118.139L173.007 116.918Z" fill="black" mask="url(#path-3-inside-1_61_379)"/>
<path d="M197.287 92.573C205.943 98.9512 196.1 102.844 190.349 104.281" stroke="#231C1D" stroke-width="1.3" stroke-linecap="round"/>
<path d="M72.3945 123.031C68.5139 121.324 66.5263 119.523 63.4064 113.982" stroke="#231C1D" stroke-width="0.7" stroke-linecap="round"/>
<path d="M75.2919 120.795C71.8876 119.297 69.2604 115.676 66.5234 110.815" stroke="#231C1D" stroke-width="0.7" stroke-linecap="round"/>
<path d="M77.0784 20.8573C79.9298 16.1512 84.6628 13.2729 92.2472 11.3767" stroke="#231C1D" stroke-width="1.3" stroke-linecap="round"/>
<path d="M82.7665 22.5595C85.6179 17.8535 87.5069 16.1171 95.0913 14.2208" stroke="#231C1D" stroke-width="1.3" stroke-linecap="round"/>
<path d="M15.455 53.0909C17.351 49.2988 22.9209 47.6913 27.7847 47.8866" stroke="#231C1D" stroke-width="1.3" stroke-linecap="round"/>
<path d="M18.2985 55.935C21.1432 52.1429 23.0392 50.2468 28.7275 50.2468" stroke="#231C1D" stroke-width="1.3" stroke-linecap="round"/>
<path d="M192.134 91.0131C198.475 96.1775 191.264 99.3295 187.052 100.494" stroke="#231C1D" stroke-width="1.3" stroke-linecap="round"/>
</g>
<defs>
<filter id="filter0_i_61_379" x="-0.412354" y="0" width="230.6" height="150" filterUnits="userSpaceOnUse" color-interpolation-filters="sRGB">
<feFlood flood-opacity="0" result="BackgroundImageFix"/>
<feBlend mode="normal" in="SourceGraphic" in2="BackgroundImageFix" result="shape"/>
<feColorMatrix in="SourceAlpha" type="matrix" values="0 0 0 0 0 0 0 0 0 0 0 0 0 0 0 0 0 0 127 0" result="hardAlpha"/>
<feOffset dx="4" dy="4"/>
<feGaussianBlur stdDeviation="2"/>
<feComposite in2="hardAlpha" operator="arithmetic" k2="-1" k3="1"/>
<feColorMatrix type="matrix" values="0 0 0 0 0 0 0 0 0 0 0 0 0 0 0 0 0 0 0.25 0"/>
<feBlend mode="normal" in2="shape" result="effect1_innerShadow_61_379"/>
</filter>
<filter id="filter1_d_61_379" x="-4.41235" y="40.6931" width="234.6" height="86.4132" filterUnits="userSpaceOnUse" color-interpolation-filters="sRGB">
<feFlood flood-opacity="0" result="BackgroundImageFix"/>
<feColorMatrix in="SourceAlpha" type="matrix" values="0 0 0 0 0 0 0 0 0 0 0 0 0 0 0 0 0 0 127 0" result="hardAlpha"/>
<feOffset dy="4"/>
<feGaussianBlur stdDeviation="2"/>
<feComposite in2="hardAlpha" operator="out"/>
<feColorMatrix type="matrix" values="0 0 0 0 0 0 0 0 0 0 0 0 0 0 0 0 0 0 0.25 0"/>
<feBlend mode="normal" in2="BackgroundImageFix" result="effect1_dropShadow_61_379"/>
<feBlend mode="normal" in="SourceGraphic" in2="effect1_dropShadow_61_379" result="shape"/>
</filter>
</defs>
</svg>
