<svg width="585" height="636" viewBox="0 0 585 636" fill="none" xmlns="http://www.w3.org/2000/svg">
<g filter="url(#filter0_i_74_168)">
<path d="M230.523 219.291L245.508 217.311C247.955 216.987 250.584 218.148 252.133 220.236L281.694 260.079L345.953 346.687L468.931 512.439C471.588 516.02 469.912 520.487 465.71 521.025L185.583 556.884C181.392 557.421 177.317 553.71 177.736 549.739L197.15 365.735L207.293 269.603L211.956 225.404C212.202 223.073 213.988 221.336 216.451 221.031L230.523 219.291Z" fill="url(#paint0_linear_74_168)"/>
<mask id="path-2-inside-1_74_168" fill="white">
<path d="M294.591 160.38C292.085 145.465 282.351 132.393 267.529 124.039C252.708 115.685 234.013 112.734 215.559 115.834C197.104 118.935 180.4 127.834 169.123 140.572C157.845 153.311 152.917 168.847 155.423 183.762L225.007 172.071L294.591 160.38Z"/>
</mask>
<path d="M294.591 160.38C292.085 145.465 282.351 132.393 267.529 124.039C252.708 115.685 234.013 112.734 215.559 115.834C197.104 118.935 180.4 127.834 169.123 140.572C157.845 153.311 152.917 168.847 155.423 183.762L225.007 172.071L294.591 160.38Z" fill="#D4CCD7" stroke="black" stroke-width="2" mask="url(#path-2-inside-1_74_168)"/>
<path d="M290.368 151.901L225.079 160.407L225.059 160.41L225.039 160.414L156.218 175.164C155.766 171.885 156.171 168.287 156.716 165.437C157.001 163.941 157.324 162.661 157.574 161.756C157.7 161.304 157.807 160.946 157.883 160.701C157.896 160.658 157.909 160.618 157.92 160.582L158.1 160.532C158.39 160.453 158.818 160.337 159.373 160.187C160.484 159.888 162.1 159.455 164.125 158.921C168.174 157.854 173.854 156.386 180.379 154.78C193.431 151.568 209.849 147.807 223.342 145.607C236.848 143.405 251.923 141.301 263.624 139.748C269.474 138.971 274.48 138.332 278.022 137.887C279.794 137.665 281.2 137.491 282.163 137.373C282.644 137.314 283.015 137.268 283.265 137.238L283.348 137.228C283.376 137.268 283.407 137.313 283.442 137.363C283.611 137.61 283.855 137.971 284.153 138.427C284.747 139.339 285.552 140.627 286.393 142.132C287.998 145.004 289.71 148.621 290.368 151.901Z" fill="#FF933E" stroke="black"/>
<path d="M382.535 171.575C383.366 176.519 380.096 182.06 373.088 187.883C366.112 193.68 355.575 199.632 342.242 205.39C315.583 216.905 277.851 227.601 235.37 234.738C192.888 241.875 153.733 244.097 124.775 241.927C110.292 240.842 98.388 238.66 89.9008 235.462C81.375 232.249 76.474 228.08 75.6434 223.136C74.8128 218.193 78.0825 212.652 85.0902 206.829C92.0661 201.032 102.603 195.08 115.937 189.321C142.596 177.807 180.327 167.111 222.809 159.974C265.29 152.836 304.445 150.615 333.403 152.784C347.887 153.87 359.79 156.052 368.278 159.25C376.803 162.463 381.704 166.632 382.535 171.575Z" fill="#E84084" stroke="black"/>
<path d="M368.258 160.097C376.223 163.53 380.914 167.751 381.966 172.517C380.188 172.818 377.893 172.84 375.071 172.653C371.992 172.448 368.321 171.997 364.063 171.408C361.989 171.121 359.778 170.801 357.431 170.462C350.146 169.409 341.553 168.167 331.717 167.124C305.694 164.364 270.936 162.99 228.37 170.142C185.832 177.289 150.402 187.297 124.281 196.975C111.221 201.814 100.483 206.572 92.344 210.852C84.9581 214.736 79.6738 218.245 76.7475 221.085C76.7638 219.034 77.4995 216.845 78.9447 214.538C80.653 211.812 83.3348 208.952 86.9157 206.013C94.0772 200.136 104.763 194.003 118.207 188.039C145.091 176.115 182.914 164.908 225.391 157.771C267.866 150.635 306.251 149.319 334.44 152.393C348.537 153.93 360.058 156.562 368.258 160.097Z" fill="#FEF912" stroke="black"/>
<path d="M381.84 174.303C394.032 176.519 308.108 161.688 223.465 175.909C138.821 190.13 91.3871 216.714 76.074 221.202C73.844 207.062 137.421 181.256 222.064 167.035C306.707 152.814 378.374 153.672 381.84 174.303Z" fill="#20CFF3" stroke="black" stroke-width="0.01"/>
<ellipse cx="232.383" cy="222.855" rx="74.639" ry="11.7487" transform="rotate(-8.96763 232.383 222.855)" fill="#1AF0AF"/>
<path d="M305.863 211.26C305.971 211.947 305.642 212.735 304.8 213.624C303.961 214.508 302.653 215.451 300.906 216.435C297.416 218.4 292.233 220.496 285.734 222.597C272.739 226.797 254.526 231.002 234.176 234.213C213.825 237.425 195.202 239.033 181.545 239.038C174.715 239.041 169.139 238.642 165.213 237.848C163.248 237.45 161.713 236.956 160.643 236.373C159.568 235.787 159.012 235.138 158.903 234.451C158.795 233.764 159.124 232.975 159.967 232.087C160.805 231.202 162.114 230.259 163.86 229.276C167.35 227.311 172.533 225.215 179.033 223.114C192.027 218.913 210.24 214.709 230.591 211.497C250.941 208.286 269.564 206.678 283.221 206.672C290.051 206.67 295.628 207.068 299.554 207.863C301.518 208.261 303.053 208.755 304.123 209.338C305.198 209.924 305.754 210.573 305.863 211.26Z" stroke="black" stroke-opacity="0.7" stroke-width="0.5"/>
<path d="M261.377 220.379C261.734 222.641 249.779 227.806 233.567 230.364C217.355 232.923 204.391 231.69 204.034 229.428C203.677 227.166 215.739 222.683 231.951 220.125C248.163 217.566 261.02 218.116 261.377 220.379Z" fill="#AFA278" stroke="black" stroke-width="0.2"/>
<path d="M261.377 220.379C261.734 222.641 250.821 225.542 234.609 228.101C218.397 230.659 204.391 231.69 204.034 229.428C203.677 227.166 216.422 222.575 232.634 220.017C248.846 217.458 261.02 218.116 261.377 220.379Z" fill="#FEF912" stroke="black" stroke-width="0.2"/>
<path d="M102.501 211.167C100.46 215.967 148.344 231.219 160.955 231.328M154.132 192.524C152.091 197.324 177.663 217.497 191.28 219.546" stroke="black" stroke-width="0.4"/>
<path d="M223.584 175.967C228.434 180.1 228.179 212.184 226.455 211.896" stroke="black" stroke-width="0.4"/>
<path d="M352.352 171.739C346.423 187.368 308.645 214.878 304.42 209.388" stroke="black" stroke-width="0.4"/>
<path d="M287.717 170.045C291.525 176.44 279.846 199.973 271.15 206.942" stroke="black" stroke-width="0.4"/>
<path d="M136.338 235.872C136.277 236.401 135.903 236.9 135.253 237.347C134.606 237.792 133.706 238.17 132.64 238.457C130.509 239.032 127.749 239.24 125.115 238.937C122.472 238.632 119.959 238.039 118.146 237.233C117.238 236.83 116.515 236.377 116.038 235.889C115.563 235.402 115.341 234.891 115.402 234.359C115.465 233.82 115.801 233.282 116.377 232.784C116.951 232.287 117.753 231.84 118.719 231.482C120.648 230.767 123.206 230.417 125.836 230.72C128.474 231.024 131.184 231.759 133.197 232.709C134.204 233.184 135.028 233.709 135.581 234.255C136.136 234.801 136.399 235.347 136.338 235.872Z" fill="#1AFB9A" stroke="black" stroke-width="0.3"/>
<path d="M202.234 207.866C199.779 207.746 197.513 206.562 195.884 204.891C194.254 203.22 193.277 201.077 193.376 199.054C193.475 197.009 194.197 195.069 195.501 193.674C196.802 192.282 198.689 191.421 201.145 191.541C203.609 191.661 206.14 192.699 208.029 194.221C209.921 195.745 211.143 197.732 211.046 199.74C210.847 203.82 207.135 208.105 202.234 207.866Z" fill="#1AFB9A" stroke="black" stroke-width="0.3"/>
<path d="M250.478 197.448C248.557 195.876 247.549 193.396 247.415 190.824C247.28 188.251 248.02 185.605 249.568 183.713C251.117 181.821 253.643 180.474 256.272 180.001C258.902 179.527 261.607 179.93 263.524 181.499C265.44 183.066 266.233 185.456 266.155 187.944C266.076 190.432 265.124 193.001 263.57 194.9C262.016 196.799 259.7 198.226 257.29 198.781C254.881 199.335 252.394 199.016 250.478 197.448Z" fill="#1AFB9A" stroke="black" stroke-width="0.3"/>
<path d="M158.411 220.454C158.201 220.942 157.694 221.313 156.934 221.554C156.176 221.794 155.193 221.896 154.076 221.864C151.845 221.801 149.116 221.206 146.68 220.159C144.251 219.115 142.295 217.503 141.064 215.887C140.449 215.079 140.018 214.273 139.798 213.542C139.578 212.809 139.573 212.163 139.789 211.661C140.001 211.166 140.509 210.754 141.26 210.45C142.009 210.147 142.98 209.962 144.081 209.909C146.284 209.803 148.981 210.229 151.412 211.273C153.837 212.315 155.82 214.094 157.079 215.882C157.708 216.776 158.154 217.667 158.385 218.465C158.616 219.265 158.626 219.953 158.411 220.454Z" fill="#1AFB9A" stroke="black" stroke-width="0.3"/>
<path d="M304.995 195.674C304.627 195.292 304.482 194.68 304.555 193.886C304.628 193.095 304.916 192.149 305.378 191.132C306.303 189.1 307.911 186.817 309.821 184.978C311.726 183.144 313.971 181.967 315.938 181.461C316.922 181.207 317.831 181.123 318.591 181.204C319.352 181.286 319.949 181.532 320.328 181.926C320.701 182.314 320.885 182.942 320.873 183.752C320.861 184.56 320.655 185.526 320.276 186.562C319.519 188.633 318.079 190.954 316.173 192.789C314.272 194.618 311.863 195.755 309.726 196.222C308.658 196.455 307.663 196.519 306.839 196.422C306.011 196.325 305.373 196.067 304.995 195.674Z" fill="#1AFB9A" stroke="black" stroke-width="0.3"/>
<path d="M353.561 189.112L353.561 189.112L353.563 189.114C353.972 189.627 354.099 190.174 353.998 190.761C353.897 191.355 353.56 192.001 353.023 192.696C351.949 194.086 350.109 195.625 347.916 197.288C345.75 198.93 342.874 199.882 340.368 200.2C339.115 200.358 337.962 200.358 337.043 200.209C336.115 200.059 335.459 199.763 335.156 199.364C334.854 198.966 334.802 198.46 334.98 197.85C335.159 197.237 335.568 196.536 336.164 195.775C337.355 194.256 339.263 192.539 341.451 190.88C343.618 189.237 346.331 188.363 348.671 188.122C349.841 188.002 350.911 188.04 351.769 188.217C352.633 188.395 353.254 188.708 353.561 189.112Z" fill="#1AFB9A" stroke="black" stroke-width="0.3"/>
<path d="M207.779 230.751C207.75 230.811 207.718 230.872 207.705 230.937C207.698 230.975 207.709 231.018 207.698 231.052" stroke="#35332E" stroke-width="0.02" stroke-linecap="round"/>
<path d="M208.997 230.791C208.979 230.946 208.978 231.081 209.002 231.232" stroke="#35332E" stroke-width="0.02" stroke-linecap="round"/>
<path d="M210.398 230.794C210.398 230.798 210.396 230.801 210.395 230.804C210.377 230.863 210.375 230.931 210.369 230.991C210.355 231.129 210.365 231.254 210.384 231.39" stroke="#35332E" stroke-width="0.02" stroke-linecap="round"/>
<path d="M207.814 230.73C207.791 230.743 207.776 230.803 207.768 230.823C207.74 230.89 207.734 230.953 207.732 231.024" stroke="#35332E" stroke-width="0.2" stroke-linecap="round"/>
<path d="M209.026 230.761C209.02 230.771 209.017 230.783 209.014 230.795C209 230.861 208.991 230.929 208.991 230.997C208.991 231.081 209.004 231.156 209.045 231.23" stroke="#35332E" stroke-width="0.2" stroke-linecap="round"/>
<path d="M210.391 230.744C210.393 230.758 210.39 230.778 210.39 230.79C210.391 230.873 210.395 230.943 210.401 231.028C210.405 231.082 210.41 231.135 210.416 231.189C210.478 231.692 210.4 231.034 210.459 231.399" stroke="#35332E" stroke-width="0.2" stroke-linecap="round"/>
<path d="M212.612 230.695C212.614 230.791 212.576 230.895 212.56 230.99C212.529 231.174 212.531 231.344 212.56 231.529" stroke="#35332E" stroke-width="0.2" stroke-linecap="round"/>
<path d="M214.654 230.525C214.655 230.539 214.652 230.552 214.649 230.565C214.615 230.781 214.59 231.004 214.587 231.222C214.586 231.371 214.639 231.506 214.712 231.632" stroke="#35332E" stroke-width="0.15" stroke-linecap="round"/>
<path d="M216.2 230.362C216.272 230.817 216.39 231.264 216.49 231.712" stroke="#35332E" stroke-width="0.15" stroke-linecap="round"/>
<path d="M217.969 230.25C218.009 230.505 217.995 230.765 218.022 231.02C218.044 231.225 218.067 231.429 218.081 231.634" stroke="#35332E" stroke-width="0.15" stroke-linecap="round"/>
<path d="M219.74 230.063C219.784 230.568 219.73 231.081 219.759 231.585" stroke="#35332E" stroke-width="0.15" stroke-linecap="round"/>
<path d="M220.956 229.96C220.979 230.366 221.041 230.78 221.017 231.188C221.008 231.343 220.989 231.501 221.002 231.655" stroke="#35332E" stroke-width="0.15" stroke-linecap="round"/>
<path d="M222.27 229.797C222.324 230.143 222.46 230.501 222.437 230.856C222.417 231.145 222.315 231.411 222.268 231.695" stroke="#35332E" stroke-width="0.15" stroke-linecap="round"/>
<path d="M225.174 229.542C225.174 229.556 225.166 229.571 225.162 229.585C225.155 229.612 225.156 229.608 225.155 229.649C225.152 229.816 225.157 229.984 225.157 230.152C225.157 230.381 225.135 230.591 225.083 230.813C225.054 230.937 225.003 231.051 224.951 231.165" stroke="#35332E" stroke-width="0.15" stroke-linecap="round"/>
<path d="M226.653 229.309C226.695 229.576 226.726 229.852 226.728 230.122C226.729 230.321 226.704 230.508 226.684 230.704C226.67 230.843 226.643 230.987 226.665 231.125" stroke="#35332E" stroke-width="0.15" stroke-linecap="round"/>
<path d="M227.842 229.201C227.905 229.603 228.124 229.975 228.106 230.392C228.098 230.562 228.086 230.746 228.112 230.914" stroke="#35332E" stroke-width="0.15" stroke-linecap="round"/>
<path d="M229.163 228.975C229.166 228.991 229.168 229.006 229.174 229.021C229.255 229.223 229.317 229.442 229.35 229.657C229.384 229.871 229.346 230.067 229.334 230.278C229.328 230.384 229.332 230.478 229.301 230.581C229.286 230.633 229.283 230.693 229.292 230.746" stroke="#35332E" stroke-width="0.15" stroke-linecap="round"/>
<path d="M230.443 228.773C230.471 228.946 230.561 229.12 230.616 229.284C230.703 229.542 230.819 229.813 230.788 230.091C230.767 230.29 230.703 230.481 230.682 230.677" stroke="#35332E" stroke-width="0.15" stroke-linecap="round"/>
<path d="M231.797 228.586C231.801 228.612 231.813 228.629 231.829 228.649C231.904 228.745 231.974 228.842 232.023 228.954C232.099 229.126 232.157 229.291 232.186 229.476C232.216 229.668 232.224 229.841 232.212 230.036C232.204 230.178 232.173 230.319 232.164 230.461" stroke="#35332E" stroke-width="0.15" stroke-linecap="round"/>
<path d="M233.254 228.32C233.257 228.331 233.263 228.338 233.271 228.346C233.32 228.393 233.348 228.447 233.381 228.506C233.535 228.782 233.693 229.071 233.758 229.384C233.819 229.685 233.8 229.961 233.764 230.262" stroke="#35332E" stroke-width="0.15" stroke-linecap="round"/>
<path d="M235.865 227.953C235.868 227.97 235.871 227.988 235.873 228.005C235.892 228.123 235.97 228.25 236.013 228.36C236.062 228.485 236.104 228.611 236.135 228.742C236.186 228.947 236.215 229.167 236.24 229.377C236.252 229.476 236.29 229.664 236.248 229.761C236.219 229.828 236.182 229.905 236.176 229.979" stroke="#35332E" stroke-width="0.15" stroke-linecap="round"/>
<path d="M237.508 227.685C237.527 227.804 237.582 227.915 237.626 228.028C237.674 228.151 237.69 228.279 237.711 228.408C237.728 228.52 237.746 228.632 237.763 228.743C237.784 228.872 237.742 228.998 237.762 229.125C237.777 229.222 237.73 229.317 237.745 229.412C237.751 229.453 237.763 229.523 237.751 229.562" stroke="#35332E" stroke-width="0.15" stroke-linecap="round"/>
<path d="M239.305 227.499C239.319 227.583 239.388 227.654 239.424 227.731C239.488 227.869 239.547 228.009 239.603 228.15C239.714 228.428 239.741 228.742 239.787 229.036" stroke="#35332E" stroke-width="0.15" stroke-linecap="round"/>
<path d="M240.797 227.228C240.803 227.253 240.831 227.285 240.842 227.305C240.984 227.553 241.135 227.811 241.194 228.093C241.236 228.294 241.263 228.498 241.295 228.701" stroke="#35332E" stroke-width="0.15" stroke-linecap="round"/>
<path d="M241.965 226.99C241.979 227.041 242.073 227.126 242.098 227.162C242.232 227.365 242.381 227.562 242.422 227.806C242.453 227.988 242.483 228.176 242.492 228.361" stroke="#35332E" stroke-width="0.15" stroke-linecap="round"/>
<path d="M244.154 226.698C244.161 226.726 244.197 226.764 244.212 226.787C244.314 226.942 244.43 227.089 244.513 227.256C244.578 227.388 244.652 227.518 244.712 227.652C244.756 227.75 244.794 227.889 244.811 227.995" stroke="#35332E" stroke-width="0.15" stroke-linecap="round"/>
<path d="M245.723 226.362C245.906 226.607 246.115 226.844 246.236 227.128C246.293 227.26 246.334 227.397 246.403 227.522" stroke="#35332E" stroke-width="0.15" stroke-linecap="round"/>
<path d="M247.198 225.925C247.257 226.004 247.347 226.071 247.414 226.141C247.54 226.272 247.622 226.39 247.71 226.544C247.785 226.676 247.796 226.827 247.867 226.963" stroke="#35332E" stroke-width="0.15" stroke-linecap="round"/>
<path d="M248.65 225.634C248.666 225.676 248.741 225.738 248.767 225.766C248.885 225.89 248.995 226.009 249.088 226.152C249.17 226.277 249.225 226.398 249.271 226.538" stroke="#35332E" stroke-width="0.15" stroke-linecap="round"/>
<path d="M249.902 225.25C249.923 225.35 250.017 225.451 250.067 225.536C250.117 225.621 250.174 225.709 250.215 225.799C250.289 225.96 250.282 226.148 250.345 226.315" stroke="#35332E" stroke-width="0.15" stroke-linecap="round"/>
<path d="M251.647 224.957C251.661 225.008 251.751 225.088 251.776 225.118C251.898 225.265 252.047 225.413 252.128 225.59" stroke="#35332E" stroke-width="0.15" stroke-linecap="round"/>
<path d="M252.749 224.579C252.765 224.625 252.852 224.692 252.879 224.722C253.01 224.874 253.13 225.014 253.21 225.198" stroke="#35332E" stroke-width="0.15" stroke-linecap="round"/>
<path d="M253.862 224.217C253.866 224.236 253.875 224.249 253.888 224.263C253.964 224.345 254.056 224.415 254.138 224.491C254.245 224.591 254.315 224.699 254.384 224.826" stroke="#35332E" stroke-width="0.15" stroke-linecap="round"/>
<path d="M255.121 223.877C255.257 224.051 255.416 224.212 255.556 224.384" stroke="#35332E" stroke-width="0.15" stroke-linecap="round"/>
<ellipse cx="87.6989" cy="213.271" rx="2.92989" ry="1.55535" transform="rotate(55.7815 87.6989 213.271)" fill="#FFF70D" stroke="black" stroke-width="0.7"/>
<ellipse cx="102.289" cy="205.637" rx="3.51179" ry="2.0733" transform="rotate(52.1656 102.289 205.637)" fill="#FFF70D" stroke="black" stroke-width="0.7"/>
<ellipse cx="118.943" cy="198.247" rx="3.87167" ry="2.0733" transform="rotate(64.7858 118.943 198.247)" fill="#FFF70D" stroke="black" stroke-width="0.7"/>
<ellipse cx="138.071" cy="191.916" rx="3.60623" ry="2.0733" transform="rotate(69.4868 138.071 191.916)" fill="#FFF70D" stroke="black" stroke-width="0.7"/>
<ellipse cx="157.556" cy="186.133" rx="3.60422" ry="2.07331" transform="rotate(68.4554 157.556 186.133)" fill="#FFF70D" stroke="black" stroke-width="0.7"/>
<ellipse cx="193.634" cy="176.996" rx="3.60422" ry="2.07331" transform="rotate(68.4554 193.634 176.996)" fill="#FFF70D" stroke="black" stroke-width="0.7"/>
<ellipse cx="213.904" cy="172.981" rx="3.60422" ry="2.0733" transform="rotate(79.0931 213.904 172.981)" fill="#FFF70D" stroke="black" stroke-width="0.7"/>
<ellipse cx="258.233" cy="166.731" rx="3.60422" ry="2.0733" transform="rotate(90.707 258.233 166.731)" fill="#FFF70D" stroke="black" stroke-width="0.7"/>
<ellipse cx="278.307" cy="165.307" rx="3.60422" ry="2.0733" transform="rotate(90.707 278.307 165.307)" fill="#FFF70D" stroke="black" stroke-width="0.7"/>
<ellipse cx="297.677" cy="164.214" rx="3.60422" ry="2.0733" transform="rotate(90.707 297.677 164.214)" fill="#FFF70D" stroke="black" stroke-width="0.7"/>
<ellipse cx="316.791" cy="163.674" rx="4.06195" ry="2.11416" transform="rotate(100.951 316.791 163.674)" fill="#FFF70D" stroke="black" stroke-width="0.7"/>
<ellipse cx="371.987" cy="169.318" rx="3.28451" ry="1.26552" transform="rotate(100.951 371.987 169.318)" fill="#FFF70D" stroke="black" stroke-width="0.7"/>
<ellipse cx="4.06195" cy="2.11416" rx="4.06195" ry="2.11416" transform="matrix(-0.189974 0.981789 -0.981789 -0.189975 337.177 160.554)" fill="#FFF70D" stroke="black" stroke-width="0.7"/>
<ellipse cx="355.04" cy="165.832" rx="4.06195" ry="2.11416" transform="rotate(105.546 355.04 165.832)" fill="#FFF70D" stroke="black" stroke-width="0.7"/>
<ellipse cx="234.696" cy="169.144" rx="3.60422" ry="2.0733" transform="rotate(79.0931 234.696 169.144)" fill="#FFF70D" stroke="black" stroke-width="0.7"/>
<ellipse cx="175.606" cy="180.874" rx="3.60422" ry="2.0733" transform="rotate(68.4554 175.606 180.874)" fill="#FFF70D" stroke="black" stroke-width="0.7"/>
<path d="M325.736 120.11C331.943 121.47 336.664 123.798 342.363 126.884" stroke="#2C3235" stroke-linecap="round"/>
<path d="M345.425 128.724C347.509 129.806 349.593 130.889 350.997 132.24" stroke="#2C3235" stroke-linecap="round"/>
</g>
<defs>
<filter id="filter0_i_74_168" x="59.147" y="85.1963" width="411.064" height="475.74" filterUnits="userSpaceOnUse" color-interpolation-filters="sRGB">
<feFlood flood-opacity="0" result="BackgroundImageFix"/>
<feBlend mode="normal" in="SourceGraphic" in2="BackgroundImageFix" result="shape"/>
<feColorMatrix in="SourceAlpha" type="matrix" values="0 0 0 0 0 0 0 0 0 0 0 0 0 0 0 0 0 0 127 0" result="hardAlpha"/>
<feOffset dy="4"/>
<feGaussianBlur stdDeviation="2"/>
<feComposite in2="hardAlpha" operator="arithmetic" k2="-1" k3="1"/>
<feColorMatrix type="matrix" values="0 0 0 0 0 0 0 0 0 0 0 0 0 0 0 0 0 0 0.25 0"/>
<feBlend mode="normal" in2="shape" result="effect1_innerShadow_74_168"/>
</filter>
<linearGradient id="paint0_linear_74_168" x1="231.803" y1="219.048" x2="273.607" y2="545.616" gradientUnits="userSpaceOnUse">
<stop stop-color="#FFFB7B"/>
<stop offset="0.00766601" stop-color="#969576"/>
<stop offset="1" stop-color="#04121A"/>
</linearGradient>
</defs>
</svg>
